<svg width="123" height="24" viewBox="0 0 123 24" fill="none" xmlns="http://www.w3.org/2000/svg">
<path d="M81.5273 7.79441C80.4881 6.7335 79.0591 6.08398 77.5002 6.08398C74.3067 6.08398 71.7194 8.79036 71.7194 12.1246C71.7194 15.4589 74.3067 18.1653 77.5002 18.1653C79.07 18.1653 80.4881 17.505 81.5273 16.4549V17.8405C81.5273 19.8433 79.871 21.4671 77.8358 21.4671C76.3419 21.4671 75.0103 20.6011 74.4366 19.2479L72.1849 20.2113C73.1483 22.4631 75.3676 23.9137 77.8358 23.9137C81.2134 23.9137 83.9739 21.1965 83.9739 17.8514V6.44121H81.5273V7.79441ZM81.5273 12.168C81.4949 14.1599 79.8602 15.7621 77.8358 15.7621C75.8006 15.7621 74.1443 14.1274 74.1443 12.1246C74.1443 10.1111 75.8006 8.48726 77.8358 8.48726C79.8602 8.48726 81.4949 10.0894 81.5273 12.0813V12.168Z" fill="white"/>
<path d="M43.1616 6.43018H40.7151V17.8295H43.1616V6.43018Z" fill="white"/>
<path d="M104.153 6.08398C104.12 6.08398 104.088 6.08398 104.055 6.08398C100.862 6.08398 98.2746 8.79036 98.2746 12.1246C98.2746 12.2004 98.2746 12.287 98.2746 12.3628C98.2746 12.3845 98.2746 12.4061 98.2746 12.4278C98.2746 12.4927 98.2854 12.5469 98.2854 12.6118C98.2962 12.8175 98.3287 13.0232 98.3612 13.218C98.8808 16.0435 101.392 18.1978 104.402 18.1978C106.21 18.1978 107.834 17.4183 108.959 16.1842L108.05 15.2749L107.227 14.4521C106.545 15.2424 105.539 15.7512 104.402 15.7512C102.767 15.7512 101.382 14.7011 100.894 13.2505H100.927C100.916 13.2397 100.905 13.2288 100.894 13.2072H107.92H109.739H109.804C109.869 12.85 109.901 12.4927 109.901 12.1246C109.901 8.82284 107.303 6.13811 104.153 6.08398ZM100.884 10.9988C101.306 9.62392 102.475 8.61715 103.882 8.49807C103.893 8.49807 103.904 8.49807 103.915 8.49807C103.947 8.49807 103.99 8.48726 104.023 8.48726C104.055 8.48726 104.088 8.48726 104.12 8.48726C104.131 8.48726 104.153 8.48726 104.164 8.48726C105.701 8.48726 107 9.54816 107.455 11.0096H100.884V10.9988Z" fill="white"/>
<path d="M91.3678 6.08398C91.3353 6.08398 91.3028 6.08398 91.2703 6.08398C88.0768 6.08398 85.4895 8.79036 85.4895 12.1246C85.4895 12.2004 85.4895 12.287 85.4895 12.3628C85.4895 12.3845 85.4895 12.4061 85.4895 12.4278C85.4895 12.4927 85.5003 12.5469 85.5003 12.6118C85.5111 12.8175 85.5436 13.0232 85.5761 13.218C86.0957 16.0435 88.6072 18.1978 91.6167 18.1978C93.4246 18.1978 95.0485 17.4183 96.1743 16.1842L95.265 15.2749L94.4422 14.4521C93.7602 15.2424 92.7534 15.7512 91.6167 15.7512C89.9821 15.7512 88.5964 14.7011 88.1093 13.2505H88.1417C88.1309 13.2397 88.1201 13.2288 88.1093 13.2072H95.1351H96.9537H97.0187C97.0837 12.85 97.1162 12.4927 97.1162 12.1246C97.1162 8.82284 94.518 6.13811 91.3678 6.08398ZM88.0984 10.9988C88.5206 9.62392 89.6898 8.61715 91.0971 8.49807C91.108 8.49807 91.1188 8.49807 91.1296 8.49807C91.1621 8.49807 91.2054 8.48726 91.2379 8.48726C91.2704 8.48726 91.3028 8.48726 91.3353 8.48726C91.3461 8.48726 91.3678 8.48726 91.3786 8.48726C92.9158 8.48726 94.2149 9.54816 94.6696 11.0096H88.0984V10.9988Z" fill="white"/>
<path d="M43.1833 1.97021H40.7151V4.43844H43.1833V1.97021Z" fill="white"/>
<path d="M30.0626 0.0864258H27.616V17.8296H30.0626V0.0864258Z" fill="white"/>
<path d="M36.0166 6.43018L30.3223 12.1244L36.0166 17.8295H39.2101L33.505 12.1244L39.2101 6.43018H36.0166Z" fill="white"/>
<path d="M113.863 0.0864258H111.417V17.8296H113.863V0.0864258Z" fill="white"/>
<path d="M119.817 6.43018L114.123 12.1244L119.817 17.8295H123L117.306 12.1244L123 6.43018H119.817Z" fill="white"/>
<path d="M47.6217 17.8292V12.0267C47.6758 10.0672 49.1914 8.48671 51.0642 8.48671C52.9695 8.48671 54.3444 10.1214 54.3444 12.1349V17.8292H56.7801V12.1349C56.7801 8.80065 54.366 6.09424 51.389 6.09424C49.9276 6.09424 48.6068 6.74379 47.6325 7.8047V6.42983H45.1859V17.8292H47.6217Z" fill="white"/>
<path d="M67.7465 17.8296H70.1931V0.0864258H67.7465V7.80507C66.7072 6.74416 65.2782 6.0838 63.7085 6.0838C60.5149 6.0838 57.9277 8.79018 57.9277 12.1245C57.9277 15.4587 60.5149 18.1651 63.7085 18.1651C65.2782 18.1651 66.7072 17.5048 67.7465 16.4439V17.8296ZM64.0441 15.7619C62.0089 15.7619 60.3526 14.1272 60.3526 12.1245C60.3526 10.1109 62.0089 8.48708 64.0441 8.48708C66.0794 8.48708 67.7356 10.1217 67.7356 12.1245C67.7356 14.138 66.0902 15.7619 64.0441 15.7619Z" fill="white"/>
<path d="M17.7431 0.0864258H10.176L17.7431 7.65349V0.0864258Z" fill="url(#paint0_linear_0_35)"/>
<path d="M17.7431 0.0864258H10.176L17.7431 7.65349V0.0864258Z" fill="url(#paint1_linear_0_35)"/>
<path d="M0 3.60449V14.3002L5.34784 8.95233L0 3.60449Z" fill="url(#paint2_linear_0_35)"/>
<path d="M0 3.60449V14.3002L5.34784 8.95233L0 3.60449Z" fill="url(#paint3_linear_0_35)"/>
<path d="M17.7431 10.2622L10.176 17.8293H17.7431V10.2622Z" fill="url(#paint4_linear_0_35)"/>
<path d="M17.7431 10.2622L10.176 17.8293H17.7431V10.2622Z" fill="url(#paint5_linear_0_35)"/>
<path d="M5.60764 0.0864258H1.03925L9.91623 8.95258L1.03925 17.8296H5.60764L14.4846 8.95258L5.60764 0.0864258Z" fill="url(#paint6_linear_0_35)"/>
<path d="M5.60764 0.0864258H1.03925L9.91623 8.95258L1.03925 17.8296H5.60764L14.4846 8.95258L5.60764 0.0864258Z" fill="url(#paint7_linear_0_35)"/>
<defs>
<linearGradient id="paint0_linear_0_35" x1="0.781286" y1="0.342991" x2="18.0023" y2="17.5638" gradientUnits="userSpaceOnUse">
<stop offset="0.0325" stop-color="#9EDC57" stop-opacity="0"/>
<stop offset="0.3286" stop-color="#9EDC57"/>
<stop offset="0.6473" stop-color="#00BFBF"/>
<stop offset="0.9785" stop-color="#00BFBF" stop-opacity="0"/>
</linearGradient>
<linearGradient id="paint1_linear_0_35" x1="0.781286" y1="0.342991" x2="18.0023" y2="17.5638" gradientUnits="userSpaceOnUse">
<stop offset="0.0325" stop-color="#9EDC57" stop-opacity="0"/>
<stop offset="0.3286" stop-color="#9EDC57"/>
<stop offset="0.6473" stop-color="#00BFBF"/>
<stop offset="0.9785" stop-color="#00BFBF" stop-opacity="0"/>
</linearGradient>
<linearGradient id="paint2_linear_0_35" x1="0.78139" y1="0.342745" x2="18.0024" y2="17.5635" gradientUnits="userSpaceOnUse">
<stop offset="0.0325" stop-color="#9EDC57" stop-opacity="0"/>
<stop offset="0.3286" stop-color="#9EDC57"/>
<stop offset="0.6473" stop-color="#00BFBF"/>
<stop offset="0.9785" stop-color="#00BFBF" stop-opacity="0"/>
</linearGradient>
<linearGradient id="paint3_linear_0_35" x1="0.78139" y1="0.342745" x2="18.0024" y2="17.5635" gradientUnits="userSpaceOnUse">
<stop offset="0.0325" stop-color="#9EDC57" stop-opacity="0"/>
<stop offset="0.3286" stop-color="#9EDC57"/>
<stop offset="0.6473" stop-color="#00BFBF"/>
<stop offset="0.9785" stop-color="#00BFBF" stop-opacity="0"/>
</linearGradient>
<linearGradient id="paint4_linear_0_35" x1="0.781286" y1="0.342703" x2="18.0023" y2="17.5635" gradientUnits="userSpaceOnUse">
<stop offset="0.0325" stop-color="#9EDC57" stop-opacity="0"/>
<stop offset="0.3286" stop-color="#9EDC57"/>
<stop offset="0.6473" stop-color="#00BFBF"/>
<stop offset="0.9785" stop-color="#00BFBF" stop-opacity="0"/>
</linearGradient>
<linearGradient id="paint5_linear_0_35" x1="0.781286" y1="0.342703" x2="18.0023" y2="17.5635" gradientUnits="userSpaceOnUse">
<stop offset="0.0325" stop-color="#9EDC57" stop-opacity="0"/>
<stop offset="0.3286" stop-color="#9EDC57"/>
<stop offset="0.6473" stop-color="#00BFBF"/>
<stop offset="0.9785" stop-color="#00BFBF" stop-opacity="0"/>
</linearGradient>
<linearGradient id="paint6_linear_0_35" x1="0.78138" y1="0.342992" x2="18.0024" y2="17.5638" gradientUnits="userSpaceOnUse">
<stop offset="0.0325" stop-color="#9EDC57" stop-opacity="0"/>
<stop offset="0.3286" stop-color="#9EDC57"/>
<stop offset="0.6473" stop-color="#00BFBF"/>
<stop offset="0.9785" stop-color="#00BFBF" stop-opacity="0"/>
</linearGradient>
<linearGradient id="paint7_linear_0_35" x1="0.78138" y1="0.342992" x2="18.0024" y2="17.5638" gradientUnits="userSpaceOnUse">
<stop offset="0.0325" stop-color="#9EDC57" stop-opacity="0"/>
<stop offset="0.3286" stop-color="#9EDC57"/>
<stop offset="0.6473" stop-color="#00BFBF"/>
<stop offset="0.9785" stop-color="#00BFBF" stop-opacity="0"/>
</linearGradient>
</defs>
</svg>
