<svg width="176" height="35" viewBox="0 0 176 35" fill="none" xmlns="http://www.w3.org/2000/svg">
<path d="M116.225 11.7651C114.749 10.2585 112.72 9.33618 110.506 9.33618C105.971 9.33618 102.297 13.1794 102.297 17.9143C102.297 22.6491 105.971 26.4924 110.506 26.4924C112.735 26.4924 114.749 25.5546 116.225 24.0634V26.0312C116.225 28.8752 113.872 31.1811 110.982 31.1811C108.861 31.1811 106.97 29.9513 106.155 28.0297L102.958 29.3978C104.326 32.5954 107.477 34.6554 110.982 34.6554C115.779 34.6554 119.699 30.7968 119.699 26.0466V9.84347H116.225V11.7651ZM116.225 17.9758C116.178 20.8044 113.857 23.0796 110.982 23.0796C108.092 23.0796 105.74 20.7583 105.74 17.9143C105.74 15.0549 108.092 12.749 110.982 12.749C113.857 12.749 116.178 15.0241 116.225 17.8528V17.9758Z" fill="white"/>
<path d="M61.743 9.82788H58.2687V26.0156H61.743V9.82788Z" fill="white"/>
<path d="M148.354 9.33618C148.308 9.33618 148.262 9.33618 148.216 9.33618C143.681 9.33618 140.007 13.1794 140.007 17.9143C140.007 18.0219 140.007 18.1449 140.007 18.2525C140.007 18.2832 140.007 18.314 140.007 18.3447C140.007 18.4369 140.022 18.5138 140.022 18.6061C140.037 18.8981 140.083 19.1902 140.129 19.4669C140.867 23.4793 144.434 26.5385 148.708 26.5385C151.275 26.5385 153.581 25.4316 155.18 23.6791L153.888 22.3878L152.72 21.2194C151.751 22.3417 150.322 23.0642 148.708 23.0642C146.386 23.0642 144.419 21.573 143.727 19.5131H143.773C143.757 19.4977 143.742 19.4823 143.727 19.4516H153.704H156.286H156.379C156.471 18.9442 156.517 18.4369 156.517 17.9143C156.517 13.2255 152.828 9.41305 148.354 9.33618ZM143.711 16.3155C144.311 14.3631 145.971 12.9334 147.97 12.7643C147.985 12.7643 148 12.7643 148.016 12.7643C148.062 12.7643 148.123 12.749 148.17 12.749C148.216 12.749 148.262 12.749 148.308 12.749C148.323 12.749 148.354 12.749 148.369 12.749C150.552 12.749 152.397 14.2555 153.043 16.3308H143.711V16.3155Z" fill="white"/>
<path d="M130.183 9.33618C130.137 9.33618 130.091 9.33618 130.045 9.33618C125.51 9.33618 121.836 13.1794 121.836 17.9143C121.836 18.0219 121.836 18.1449 121.836 18.2525C121.836 18.2832 121.836 18.314 121.836 18.3447C121.836 18.4369 121.851 18.5138 121.851 18.6061C121.866 18.8981 121.912 19.1902 121.959 19.4669C122.696 23.4793 126.263 26.5385 130.537 26.5385C133.104 26.5385 135.41 25.4316 137.009 23.6791L135.717 22.3878L134.549 21.2194C133.581 22.3417 132.151 23.0642 130.537 23.0642C128.215 23.0642 126.248 21.573 125.556 19.5131H125.602C125.587 19.4977 125.571 19.4823 125.556 19.4516H135.533H138.116H138.208C138.3 18.9442 138.346 18.4369 138.346 17.9143C138.362 13.2255 134.657 9.41305 130.183 9.33618ZM125.54 16.3155C126.14 14.3631 127.8 12.9334 129.799 12.7643C129.814 12.7643 129.83 12.7643 129.845 12.7643C129.891 12.7643 129.953 12.749 129.999 12.749C130.045 12.749 130.091 12.749 130.137 12.749C130.152 12.749 130.183 12.749 130.198 12.749C132.381 12.749 134.226 14.2555 134.872 16.3308H125.54V16.3155Z" fill="white"/>
<path d="M61.7738 3.49463H58.2687V6.99966H61.7738V3.49463Z" fill="white"/>
<path d="M43.1263 0.819336H39.652V26.0156H43.1263V0.819336Z" fill="white"/>
<path d="M51.5967 9.82788L43.4952 17.9141L51.5967 26.0156H56.1164L48.0148 17.9141L56.1164 9.82788H51.5967Z" fill="white"/>
<path d="M162.128 0.81958H158.654V26.0158H162.128V0.81958Z" fill="white"/>
<path d="M170.598 9.82812L162.497 17.9143L170.598 26.0159H175.118L167.017 17.9143L175.118 9.82812H170.598Z" fill="white"/>
<path d="M68.0611 26.0154V17.7755C68.1379 14.993 70.2901 12.7485 72.9497 12.7485C75.6553 12.7485 77.6077 15.0698 77.6077 17.9292V26.0154H81.0666V17.9292C81.0666 13.1943 77.6384 9.35107 73.4109 9.35107C71.3355 9.35107 69.46 10.2735 68.0764 11.78V9.82763H64.6022V26.0154H68.0611Z" fill="white"/>
<path d="M96.6394 26.0158H100.114V0.81958H96.6394V11.7805C95.1636 10.2739 93.1344 9.3362 90.9053 9.3362C86.3703 9.3362 82.6962 13.1794 82.6962 17.9143C82.6962 22.6491 86.3703 26.4924 90.9053 26.4924C93.1344 26.4924 95.1636 25.5546 96.6394 24.0481V26.0158ZM91.3972 23.0796C88.5071 23.0796 86.1551 20.7583 86.1551 17.9143C86.1551 15.0549 88.5071 12.749 91.3972 12.749C94.2874 12.749 96.6394 15.0703 96.6394 17.9143C96.6394 20.7736 94.2874 23.0796 91.3972 23.0796Z" fill="white"/>
<path d="M25.6318 0.819336H14.8861L25.6318 11.565V0.819336Z" fill="#00BFBF"/>
<path d="M25.6318 0.819336H14.8861L25.6318 11.565V0.819336Z" fill="#00BFBF"/>
<path d="M0.435669 5.81543V21.0039L8.04527 13.4097L0.435669 5.81543Z" fill="#00BFBF"/>
<path d="M0.435669 5.81543V21.0039L8.04527 13.4097L0.435669 5.81543Z" fill="#00BFBF"/>
<path d="M25.6318 15.2698L14.8861 26.0155H25.6318V15.2698Z" fill="#00BFBF"/>
<path d="M25.6318 15.2698L14.8861 26.0155H25.6318V15.2698Z" fill="#00BFBF"/>
<path d="M8.4142 0.819336H1.92682L14.5173 13.4098L1.92682 26.0156H8.4142L21.0046 13.4098L8.4142 0.819336Z" fill="#00BFBF"/>
<path d="M8.4142 0.819336H1.92682L14.5173 13.4098L1.92682 26.0156H8.4142L21.0046 13.4098L8.4142 0.819336Z" fill="#00BFBF"/>
</svg>
