<svg width="47" height="47" viewBox="0 0 47 47" fill="none" xmlns="http://www.w3.org/2000/svg">
<path d="M38.2822 46.7314H9.51951C4.7539 46.7314 0.879883 42.8574 0.879883 38.0918V9.32904C0.879883 4.56343 4.7539 0.689453 9.51951 0.689453H38.2822C43.0478 0.689453 46.9218 4.56343 46.9218 9.32904V38.0918C46.9218 42.8574 43.0478 46.7314 38.2822 46.7314Z" fill="#191919"/>
<path d="M38.9584 8.63721H26.1066L38.9584 21.489V8.63721Z" fill="url(#paint0_linear_79_13)"/>
<path d="M38.9584 8.63721H26.1066L38.9584 21.489V8.63721Z" fill="url(#paint1_linear_79_13)"/>
<path d="M8.82745 14.6174V32.7882L17.9128 23.7028L8.82745 14.6174Z" fill="url(#paint2_linear_79_13)"/>
<path d="M8.82745 14.6174V32.7882L17.9128 23.7028L8.82745 14.6174Z" fill="url(#paint3_linear_79_13)"/>
<path d="M38.9584 25.916L26.1066 38.7678H38.9584V25.916Z" fill="url(#paint4_linear_79_13)"/>
<path d="M38.9584 25.916L26.1066 38.7678H38.9584V25.916Z" fill="url(#paint5_linear_79_13)"/>
<path d="M18.3585 8.63721H10.5952L25.676 23.7027L10.5952 38.7682H18.3585L33.424 23.7027L18.3585 8.63721Z" fill="url(#paint6_linear_79_13)"/>
<path d="M18.3585 8.63721H10.5952L25.676 23.7027L10.5952 38.7682H18.3585L33.424 23.7027L18.3585 8.63721Z" fill="url(#paint7_linear_79_13)"/>
<path d="M38.9584 8.63721H26.1066L38.9584 21.489V8.63721Z" fill="url(#paint8_linear_79_13)"/>
<path d="M38.9584 8.63721H26.1066L38.9584 21.489V8.63721Z" fill="url(#paint9_linear_79_13)"/>
<path d="M8.82745 14.6174V32.7882L17.9128 23.7028L8.82745 14.6174Z" fill="url(#paint10_linear_79_13)"/>
<path d="M8.82745 14.6174V32.7882L17.9128 23.7028L8.82745 14.6174Z" fill="url(#paint11_linear_79_13)"/>
<path d="M38.9584 25.916L26.1066 38.7678H38.9584V25.916Z" fill="url(#paint12_linear_79_13)"/>
<path d="M38.9584 25.916L26.1066 38.7678H38.9584V25.916Z" fill="url(#paint13_linear_79_13)"/>
<path d="M18.3585 8.63721H10.5952L25.676 23.7027L10.5952 38.7682H18.3585L33.424 23.7027L18.3585 8.63721Z" fill="url(#paint14_linear_79_13)"/>
<path d="M18.3585 8.63721H10.5952L25.676 23.7027L10.5952 38.7682H18.3585L33.424 23.7027L18.3585 8.63721Z" fill="url(#paint15_linear_79_13)"/>
<path d="M38.9584 8.63721H26.1066L38.9584 21.489V8.63721Z" fill="url(#paint16_linear_79_13)"/>
<path d="M38.9584 8.63721H26.1066L38.9584 21.489V8.63721Z" fill="url(#paint17_linear_79_13)"/>
<path d="M8.82745 14.6174V32.7882L17.9128 23.7028L8.82745 14.6174Z" fill="url(#paint18_linear_79_13)"/>
<path d="M8.82745 14.6174V32.7882L17.9128 23.7028L8.82745 14.6174Z" fill="url(#paint19_linear_79_13)"/>
<path d="M38.9584 25.916L26.1066 38.7678H38.9584V25.916Z" fill="url(#paint20_linear_79_13)"/>
<path d="M38.9584 25.916L26.1066 38.7678H38.9584V25.916Z" fill="url(#paint21_linear_79_13)"/>
<path d="M18.3585 8.63721H10.5952L25.676 23.7027L10.5952 38.7682H18.3585L33.424 23.7027L18.3585 8.63721Z" fill="url(#paint22_linear_79_13)"/>
<path d="M18.3585 8.63721H10.5952L25.676 23.7027L10.5952 38.7682H18.3585L33.424 23.7027L18.3585 8.63721Z" fill="url(#paint23_linear_79_13)"/>
<defs>
<linearGradient id="paint0_linear_79_13" x1="10.1589" y1="9.08579" x2="39.4051" y2="38.3318" gradientUnits="userSpaceOnUse">
<stop offset="0.0325" stop-color="#9EDC57" stop-opacity="0"/>
<stop offset="0.3286" stop-color="#9EDC57"/>
<stop offset="0.6473" stop-color="#00BFBF"/>
<stop offset="0.9785" stop-color="#00BFBF" stop-opacity="0"/>
</linearGradient>
<linearGradient id="paint1_linear_79_13" x1="10.1589" y1="9.08579" x2="39.4051" y2="38.3318" gradientUnits="userSpaceOnUse">
<stop offset="0.0325" stop-color="#9EDC57" stop-opacity="0"/>
<stop offset="0.3286" stop-color="#9EDC57"/>
<stop offset="0.6473" stop-color="#00BFBF"/>
<stop offset="0.9785" stop-color="#00BFBF" stop-opacity="0"/>
</linearGradient>
<linearGradient id="paint2_linear_79_13" x1="10.1589" y1="9.08595" x2="39.4049" y2="38.3319" gradientUnits="userSpaceOnUse">
<stop offset="0.0325" stop-color="#9EDC57" stop-opacity="0"/>
<stop offset="0.3286" stop-color="#9EDC57"/>
<stop offset="0.6473" stop-color="#00BFBF"/>
<stop offset="0.9785" stop-color="#00BFBF" stop-opacity="0"/>
</linearGradient>
<linearGradient id="paint3_linear_79_13" x1="10.1589" y1="9.08595" x2="39.4049" y2="38.3319" gradientUnits="userSpaceOnUse">
<stop offset="0.0325" stop-color="#9EDC57" stop-opacity="0"/>
<stop offset="0.3286" stop-color="#9EDC57"/>
<stop offset="0.6473" stop-color="#00BFBF"/>
<stop offset="0.9785" stop-color="#00BFBF" stop-opacity="0"/>
</linearGradient>
<linearGradient id="paint4_linear_79_13" x1="10.1589" y1="9.08538" x2="39.4051" y2="38.3314" gradientUnits="userSpaceOnUse">
<stop offset="0.0325" stop-color="#9EDC57" stop-opacity="0"/>
<stop offset="0.3286" stop-color="#9EDC57"/>
<stop offset="0.6473" stop-color="#00BFBF"/>
<stop offset="0.9785" stop-color="#00BFBF" stop-opacity="0"/>
</linearGradient>
<linearGradient id="paint5_linear_79_13" x1="10.1589" y1="9.08538" x2="39.4051" y2="38.3314" gradientUnits="userSpaceOnUse">
<stop offset="0.0325" stop-color="#9EDC57" stop-opacity="0"/>
<stop offset="0.3286" stop-color="#9EDC57"/>
<stop offset="0.6473" stop-color="#00BFBF"/>
<stop offset="0.9785" stop-color="#00BFBF" stop-opacity="0"/>
</linearGradient>
<linearGradient id="paint6_linear_79_13" x1="10.1587" y1="9.08579" x2="39.4048" y2="38.3318" gradientUnits="userSpaceOnUse">
<stop offset="0.0325" stop-color="#9EDC57" stop-opacity="0"/>
<stop offset="0.3286" stop-color="#9EDC57"/>
<stop offset="0.6473" stop-color="#00BFBF"/>
<stop offset="0.9785" stop-color="#00BFBF" stop-opacity="0"/>
</linearGradient>
<linearGradient id="paint7_linear_79_13" x1="10.1587" y1="9.08579" x2="39.4048" y2="38.3318" gradientUnits="userSpaceOnUse">
<stop offset="0.0325" stop-color="#9EDC57" stop-opacity="0"/>
<stop offset="0.3286" stop-color="#9EDC57"/>
<stop offset="0.6473" stop-color="#00BFBF"/>
<stop offset="0.9785" stop-color="#00BFBF" stop-opacity="0"/>
</linearGradient>
<linearGradient id="paint8_linear_79_13" x1="10.1589" y1="9.08579" x2="39.4051" y2="38.3318" gradientUnits="userSpaceOnUse">
<stop offset="0.0325" stop-color="#9EDC57" stop-opacity="0"/>
<stop offset="0.3286" stop-color="#9EDC57"/>
<stop offset="0.6473" stop-color="#00BFBF"/>
<stop offset="0.9785" stop-color="#00BFBF" stop-opacity="0"/>
</linearGradient>
<linearGradient id="paint9_linear_79_13" x1="10.1589" y1="9.08579" x2="39.4051" y2="38.3318" gradientUnits="userSpaceOnUse">
<stop offset="0.0325" stop-color="#9EDC57" stop-opacity="0"/>
<stop offset="0.3286" stop-color="#9EDC57"/>
<stop offset="0.6473" stop-color="#00BFBF"/>
<stop offset="0.9785" stop-color="#00BFBF" stop-opacity="0"/>
</linearGradient>
<linearGradient id="paint10_linear_79_13" x1="10.1589" y1="9.08595" x2="39.4049" y2="38.3319" gradientUnits="userSpaceOnUse">
<stop offset="0.0325" stop-color="#9EDC57" stop-opacity="0"/>
<stop offset="0.3286" stop-color="#9EDC57"/>
<stop offset="0.6473" stop-color="#00BFBF"/>
<stop offset="0.9785" stop-color="#00BFBF" stop-opacity="0"/>
</linearGradient>
<linearGradient id="paint11_linear_79_13" x1="10.1589" y1="9.08595" x2="39.4049" y2="38.3319" gradientUnits="userSpaceOnUse">
<stop offset="0.0325" stop-color="#9EDC57" stop-opacity="0"/>
<stop offset="0.3286" stop-color="#9EDC57"/>
<stop offset="0.6473" stop-color="#00BFBF"/>
<stop offset="0.9785" stop-color="#00BFBF" stop-opacity="0"/>
</linearGradient>
<linearGradient id="paint12_linear_79_13" x1="10.1589" y1="9.08538" x2="39.4051" y2="38.3314" gradientUnits="userSpaceOnUse">
<stop offset="0.0325" stop-color="#9EDC57" stop-opacity="0"/>
<stop offset="0.3286" stop-color="#9EDC57"/>
<stop offset="0.6473" stop-color="#00BFBF"/>
<stop offset="0.9785" stop-color="#00BFBF" stop-opacity="0"/>
</linearGradient>
<linearGradient id="paint13_linear_79_13" x1="10.1589" y1="9.08538" x2="39.4051" y2="38.3314" gradientUnits="userSpaceOnUse">
<stop offset="0.0325" stop-color="#9EDC57" stop-opacity="0"/>
<stop offset="0.3286" stop-color="#9EDC57"/>
<stop offset="0.6473" stop-color="#00BFBF"/>
<stop offset="0.9785" stop-color="#00BFBF" stop-opacity="0"/>
</linearGradient>
<linearGradient id="paint14_linear_79_13" x1="10.1587" y1="9.08579" x2="39.4048" y2="38.3318" gradientUnits="userSpaceOnUse">
<stop offset="0.0325" stop-color="#9EDC57" stop-opacity="0"/>
<stop offset="0.3286" stop-color="#9EDC57"/>
<stop offset="0.6473" stop-color="#00BFBF"/>
<stop offset="0.9785" stop-color="#00BFBF" stop-opacity="0"/>
</linearGradient>
<linearGradient id="paint15_linear_79_13" x1="10.1587" y1="9.08579" x2="39.4048" y2="38.3318" gradientUnits="userSpaceOnUse">
<stop offset="0.0325" stop-color="#9EDC57" stop-opacity="0"/>
<stop offset="0.3286" stop-color="#9EDC57"/>
<stop offset="0.6473" stop-color="#00BFBF"/>
<stop offset="0.9785" stop-color="#00BFBF" stop-opacity="0"/>
</linearGradient>
<linearGradient id="paint16_linear_79_13" x1="10.1589" y1="9.08579" x2="39.4051" y2="38.3318" gradientUnits="userSpaceOnUse">
<stop offset="0.0325" stop-color="#9EDC57" stop-opacity="0"/>
<stop offset="0.3286" stop-color="#9EDC57"/>
<stop offset="0.6473" stop-color="#00BFBF"/>
<stop offset="0.9785" stop-color="#00BFBF" stop-opacity="0"/>
</linearGradient>
<linearGradient id="paint17_linear_79_13" x1="10.1589" y1="9.08579" x2="39.4051" y2="38.3318" gradientUnits="userSpaceOnUse">
<stop offset="0.0325" stop-color="#9EDC57" stop-opacity="0"/>
<stop offset="0.3286" stop-color="#9EDC57"/>
<stop offset="0.6473" stop-color="#00BFBF"/>
<stop offset="0.9785" stop-color="#00BFBF" stop-opacity="0"/>
</linearGradient>
<linearGradient id="paint18_linear_79_13" x1="10.1589" y1="9.08595" x2="39.4049" y2="38.3319" gradientUnits="userSpaceOnUse">
<stop offset="0.0325" stop-color="#9EDC57" stop-opacity="0"/>
<stop offset="0.3286" stop-color="#9EDC57"/>
<stop offset="0.6473" stop-color="#00BFBF"/>
<stop offset="0.9785" stop-color="#00BFBF" stop-opacity="0"/>
</linearGradient>
<linearGradient id="paint19_linear_79_13" x1="10.1589" y1="9.08595" x2="39.4049" y2="38.3319" gradientUnits="userSpaceOnUse">
<stop offset="0.0325" stop-color="#9EDC57" stop-opacity="0"/>
<stop offset="0.3286" stop-color="#9EDC57"/>
<stop offset="0.6473" stop-color="#00BFBF"/>
<stop offset="0.9785" stop-color="#00BFBF" stop-opacity="0"/>
</linearGradient>
<linearGradient id="paint20_linear_79_13" x1="10.1589" y1="9.08538" x2="39.4051" y2="38.3314" gradientUnits="userSpaceOnUse">
<stop offset="0.0325" stop-color="#9EDC57" stop-opacity="0"/>
<stop offset="0.3286" stop-color="#9EDC57"/>
<stop offset="0.6473" stop-color="#00BFBF"/>
<stop offset="0.9785" stop-color="#00BFBF" stop-opacity="0"/>
</linearGradient>
<linearGradient id="paint21_linear_79_13" x1="10.1589" y1="9.08538" x2="39.4051" y2="38.3314" gradientUnits="userSpaceOnUse">
<stop offset="0.0325" stop-color="#9EDC57" stop-opacity="0"/>
<stop offset="0.3286" stop-color="#9EDC57"/>
<stop offset="0.6473" stop-color="#00BFBF"/>
<stop offset="0.9785" stop-color="#00BFBF" stop-opacity="0"/>
</linearGradient>
<linearGradient id="paint22_linear_79_13" x1="10.1587" y1="9.08579" x2="39.4048" y2="38.3318" gradientUnits="userSpaceOnUse">
<stop offset="0.0325" stop-color="#9EDC57" stop-opacity="0"/>
<stop offset="0.3286" stop-color="#9EDC57"/>
<stop offset="0.6473" stop-color="#00BFBF"/>
<stop offset="0.9785" stop-color="#00BFBF" stop-opacity="0"/>
</linearGradient>
<linearGradient id="paint23_linear_79_13" x1="10.1587" y1="9.08579" x2="39.4048" y2="38.3318" gradientUnits="userSpaceOnUse">
<stop offset="0.0325" stop-color="#9EDC57" stop-opacity="0"/>
<stop offset="0.3286" stop-color="#9EDC57"/>
<stop offset="0.6473" stop-color="#00BFBF"/>
<stop offset="0.9785" stop-color="#00BFBF" stop-opacity="0"/>
</linearGradient>
</defs>
</svg>
