<svg width="176" height="35" viewBox="0 0 176 35" fill="none" xmlns="http://www.w3.org/2000/svg">
<path d="M116.333 11.7651C114.857 10.2585 112.828 9.33618 110.614 9.33618C106.079 9.33618 102.405 13.1794 102.405 17.9143C102.405 22.6491 106.079 26.4924 110.614 26.4924C112.843 26.4924 114.857 25.5546 116.333 24.0634V26.0312C116.333 28.8752 113.981 31.1811 111.091 31.1811C108.969 31.1811 107.079 29.9513 106.264 28.0297L103.066 29.3978C104.434 32.5954 107.586 34.6554 111.091 34.6554C115.887 34.6554 119.807 30.7968 119.807 26.0466V9.84347H116.333V11.7651ZM116.333 17.9758C116.287 20.8044 113.966 23.0796 111.091 23.0796C108.201 23.0796 105.849 20.7583 105.849 17.9143C105.849 15.0549 108.201 12.749 111.091 12.749C113.966 12.749 116.287 15.0241 116.333 17.8528V17.9758Z" fill="white"/>
<path d="M61.8516 9.82788H58.3773V26.0156H61.8516V9.82788Z" fill="white"/>
<path d="M148.463 9.33618C148.416 9.33618 148.37 9.33618 148.324 9.33618C143.789 9.33618 140.115 13.1794 140.115 17.9143C140.115 18.0219 140.115 18.1449 140.115 18.2525C140.115 18.2832 140.115 18.314 140.115 18.3447C140.115 18.4369 140.13 18.5138 140.13 18.6061C140.146 18.8981 140.192 19.1902 140.238 19.4669C140.976 23.4793 144.542 26.5385 148.816 26.5385C151.383 26.5385 153.689 25.4316 155.288 23.6791L153.997 22.3878L152.828 21.2194C151.86 22.3417 150.43 23.0642 148.816 23.0642C146.495 23.0642 144.527 21.573 143.835 19.5131H143.881C143.866 19.4977 143.851 19.4823 143.835 19.4516H153.812H156.395H156.487C156.579 18.9442 156.626 18.4369 156.626 17.9143C156.626 13.2255 152.936 9.41305 148.463 9.33618ZM143.82 16.3155C144.419 14.3631 146.08 12.9334 148.078 12.7643C148.094 12.7643 148.109 12.7643 148.124 12.7643C148.17 12.7643 148.232 12.749 148.278 12.749C148.324 12.749 148.37 12.749 148.416 12.749C148.432 12.749 148.463 12.749 148.478 12.749C150.661 12.749 152.506 14.2555 153.151 16.3308H143.82V16.3155Z" fill="white"/>
<path d="M130.307 9.33618C130.261 9.33618 130.215 9.33618 130.169 9.33618C125.634 9.33618 121.96 13.1794 121.96 17.9143C121.96 18.0219 121.96 18.1449 121.96 18.2525C121.96 18.2832 121.96 18.314 121.96 18.3447C121.96 18.4369 121.975 18.5138 121.975 18.6061C121.99 18.8981 122.036 19.1902 122.082 19.4669C122.82 23.4793 126.387 26.5385 130.661 26.5385C133.228 26.5385 135.534 25.4316 137.133 23.6791L135.841 22.3878L134.673 21.2194C133.704 22.3417 132.275 23.0642 130.661 23.0642C128.339 23.0642 126.372 21.573 125.68 19.5131H125.726C125.71 19.4977 125.695 19.4823 125.68 19.4516H135.657H138.239H138.332C138.424 18.9442 138.47 18.4369 138.47 17.9143C138.47 13.2255 134.781 9.41305 130.307 9.33618ZM125.664 16.3155C126.264 14.3631 127.924 12.9334 129.923 12.7643C129.938 12.7643 129.953 12.7643 129.969 12.7643C130.015 12.7643 130.076 12.749 130.123 12.749C130.169 12.749 130.215 12.749 130.261 12.749C130.276 12.749 130.307 12.749 130.322 12.749C132.505 12.749 134.35 14.2555 134.996 16.3308H125.664V16.3155Z" fill="white"/>
<path d="M61.8823 3.49463H58.3773V6.99966H61.8823V3.49463Z" fill="white"/>
<path d="M43.2503 0.819336H39.776V26.0156H43.2503V0.819336Z" fill="white"/>
<path d="M51.7053 9.82788L43.6191 17.9141L51.7053 26.0156H56.2403L48.1388 17.9141L56.2403 9.82788H51.7053Z" fill="white"/>
<path d="M162.252 0.81958H158.778V26.0158H162.252V0.81958Z" fill="white"/>
<path d="M170.707 9.82812L162.621 17.9143L170.707 26.0159H175.227L167.14 17.9143L175.227 9.82812H170.707Z" fill="white"/>
<path d="M68.185 26.0154V17.7755C68.2619 14.993 70.4141 12.7485 73.0736 12.7485C75.7793 12.7485 77.7317 15.0698 77.7317 17.9292V26.0154H81.1906V17.9292C81.1906 13.1943 77.7624 9.35107 73.5349 9.35107C71.4595 9.35107 69.584 10.2735 68.2004 11.78V9.82763H64.7261V26.0154H68.185Z" fill="white"/>
<path d="M96.7634 26.0158H100.238V0.81958H96.7634V11.7805C95.2876 10.2739 93.2583 9.3362 91.0292 9.3362C86.4942 9.3362 82.8201 13.1794 82.8201 17.9143C82.8201 22.6491 86.4942 26.4924 91.0292 26.4924C93.2583 26.4924 95.2876 25.5546 96.7634 24.0481V26.0158ZM91.5059 23.0796C88.6157 23.0796 86.2636 20.7583 86.2636 17.9143C86.2636 15.0549 88.6157 12.749 91.5059 12.749C94.396 12.749 96.748 15.0703 96.748 17.9143C96.748 20.7736 94.4113 23.0796 91.5059 23.0796Z" fill="white"/>
<path d="M25.7558 0.819336H15.01L25.7558 11.565V0.819336Z" fill="url(#paint0_linear_0_469)"/>
<path d="M25.7558 0.819336H15.01L25.7558 11.565V0.819336Z" fill="url(#paint1_linear_0_469)"/>
<path d="M0.559631 5.81543V21.0039L8.15387 13.4097L0.559631 5.81543Z" fill="url(#paint2_linear_0_469)"/>
<path d="M0.559631 5.81543V21.0039L8.15387 13.4097L0.559631 5.81543Z" fill="url(#paint3_linear_0_469)"/>
<path d="M25.7558 15.2698L15.01 26.0155H25.7558V15.2698Z" fill="url(#paint4_linear_0_469)"/>
<path d="M25.7558 15.2698L15.01 26.0155H25.7558V15.2698Z" fill="url(#paint5_linear_0_469)"/>
<path d="M8.52275 0.819336H2.03537L14.6412 13.4098L2.03537 26.0156H8.52275L21.1286 13.4098L8.52275 0.819336Z" fill="url(#paint6_linear_0_469)"/>
<path d="M8.52275 0.819336H2.03537L14.6412 13.4098L2.03537 26.0156H8.52275L21.1286 13.4098L8.52275 0.819336Z" fill="url(#paint7_linear_0_469)"/>
<defs>
<linearGradient id="paint0_linear_0_469" x1="1.66906" y1="1.18367" x2="26.1238" y2="25.6382" gradientUnits="userSpaceOnUse">
<stop offset="0.0325" stop-color="#9EDC57" stop-opacity="0"/>
<stop offset="0.3286" stop-color="#9EDC57"/>
<stop offset="0.6473" stop-color="#00BFBF"/>
<stop offset="0.9785" stop-color="#00BFBF" stop-opacity="0"/>
</linearGradient>
<linearGradient id="paint1_linear_0_469" x1="1.66906" y1="1.18367" x2="26.1238" y2="25.6382" gradientUnits="userSpaceOnUse">
<stop offset="0.0325" stop-color="#9EDC57" stop-opacity="0"/>
<stop offset="0.3286" stop-color="#9EDC57"/>
<stop offset="0.6473" stop-color="#00BFBF"/>
<stop offset="0.9785" stop-color="#00BFBF" stop-opacity="0"/>
</linearGradient>
<linearGradient id="paint2_linear_0_469" x1="1.66925" y1="1.18356" x2="26.1241" y2="25.6381" gradientUnits="userSpaceOnUse">
<stop offset="0.0325" stop-color="#9EDC57" stop-opacity="0"/>
<stop offset="0.3286" stop-color="#9EDC57"/>
<stop offset="0.6473" stop-color="#00BFBF"/>
<stop offset="0.9785" stop-color="#00BFBF" stop-opacity="0"/>
</linearGradient>
<linearGradient id="paint3_linear_0_469" x1="1.66925" y1="1.18356" x2="26.1241" y2="25.6381" gradientUnits="userSpaceOnUse">
<stop offset="0.0325" stop-color="#9EDC57" stop-opacity="0"/>
<stop offset="0.3286" stop-color="#9EDC57"/>
<stop offset="0.6473" stop-color="#00BFBF"/>
<stop offset="0.9785" stop-color="#00BFBF" stop-opacity="0"/>
</linearGradient>
<linearGradient id="paint4_linear_0_469" x1="1.66906" y1="1.18351" x2="26.1239" y2="25.6381" gradientUnits="userSpaceOnUse">
<stop offset="0.0325" stop-color="#9EDC57" stop-opacity="0"/>
<stop offset="0.3286" stop-color="#9EDC57"/>
<stop offset="0.6473" stop-color="#00BFBF"/>
<stop offset="0.9785" stop-color="#00BFBF" stop-opacity="0"/>
</linearGradient>
<linearGradient id="paint5_linear_0_469" x1="1.66906" y1="1.18351" x2="26.1239" y2="25.6381" gradientUnits="userSpaceOnUse">
<stop offset="0.0325" stop-color="#9EDC57" stop-opacity="0"/>
<stop offset="0.3286" stop-color="#9EDC57"/>
<stop offset="0.6473" stop-color="#00BFBF"/>
<stop offset="0.9785" stop-color="#00BFBF" stop-opacity="0"/>
</linearGradient>
<linearGradient id="paint6_linear_0_469" x1="1.66919" y1="1.18368" x2="26.124" y2="25.6382" gradientUnits="userSpaceOnUse">
<stop offset="0.0325" stop-color="#9EDC57" stop-opacity="0"/>
<stop offset="0.3286" stop-color="#9EDC57"/>
<stop offset="0.6473" stop-color="#00BFBF"/>
<stop offset="0.9785" stop-color="#00BFBF" stop-opacity="0"/>
</linearGradient>
<linearGradient id="paint7_linear_0_469" x1="1.66919" y1="1.18368" x2="26.124" y2="25.6382" gradientUnits="userSpaceOnUse">
<stop offset="0.0325" stop-color="#9EDC57" stop-opacity="0"/>
<stop offset="0.3286" stop-color="#9EDC57"/>
<stop offset="0.6473" stop-color="#00BFBF"/>
<stop offset="0.9785" stop-color="#00BFBF" stop-opacity="0"/>
</linearGradient>
</defs>
</svg>
