<svg width="47" height="47" viewBox="0 0 47 47" fill="none" xmlns="http://www.w3.org/2000/svg">
<path d="M37.5129 46.3315H8.7348C3.96919 46.3315 0.0952148 42.4575 0.0952148 37.6919V8.92913C0.0952148 4.16352 3.96919 0.289551 8.7348 0.289551H37.4976C42.2632 0.289551 46.1372 4.16352 46.1372 8.92913V37.6919C46.1525 42.4729 42.2785 46.3315 37.5129 46.3315Z" fill="#191919"/>
<path d="M38.1892 8.25293H25.3375L38.1892 21.1047V8.25293Z" fill="#00BFBF"/>
<path d="M8.05829 14.2332V32.4039L17.1437 23.3185L8.05829 14.2332Z" fill="#00BFBF"/>
<path d="M38.1892 25.5317L25.3375 38.3835H38.1892V25.5317Z" fill="#00BFBF"/>
<path d="M17.5893 8.25293H9.82602L24.8915 23.3184L9.82602 38.3839H17.5893L32.6548 23.3184L17.5893 8.25293Z" fill="#00BFBF"/>
</svg>
