<svg width="47" height="47" viewBox="0 0 47 47" fill="none" xmlns="http://www.w3.org/2000/svg">
<path d="M37.7281 46.7314H8.96527C4.19966 46.7314 0.325684 42.8574 0.325684 38.0918V9.32904C0.325684 4.56343 4.19966 0.689453 8.96527 0.689453H37.7281C42.4937 0.689453 46.3676 4.56343 46.3676 9.32904V38.0918C46.3523 42.8574 42.4937 46.7314 37.7281 46.7314Z" fill="#00BFBF"/>
<path d="M38.4043 8.63721H25.5525L38.4043 21.489V8.63721Z" fill="white"/>
<path d="M8.27332 14.6174V32.7882L17.3587 23.7028L8.27332 14.6174Z" fill="white"/>
<path d="M38.4043 25.916L25.5525 38.7678H38.4043V25.916Z" fill="white"/>
<path d="M17.8044 8.63721H10.041L25.1065 23.7027L10.041 38.7682H17.8044L32.8699 23.7027L17.8044 8.63721Z" fill="white"/>
</svg>
