<svg width="175" height="35" viewBox="0 0 175 35" fill="none" xmlns="http://www.w3.org/2000/svg">
<path d="M115.887 11.7651C114.411 10.2585 112.382 9.33618 110.168 9.33618C105.633 9.33618 101.959 13.1794 101.959 17.9143C101.959 22.6491 105.633 26.4924 110.168 26.4924C112.397 26.4924 114.411 25.5546 115.887 24.0634V26.0312C115.887 28.8752 113.535 31.1811 110.645 31.1811C108.523 31.1811 106.632 29.9513 105.818 28.0297L102.62 29.3978C103.988 32.5954 107.14 34.6554 110.645 34.6554C115.441 34.6554 119.361 30.7968 119.361 26.0466V9.84347H115.887V11.7651ZM115.887 17.9758C115.841 20.8044 113.519 23.0796 110.645 23.0796C107.755 23.0796 105.403 20.7583 105.403 17.9143C105.403 15.0549 107.755 12.749 110.645 12.749C113.519 12.749 115.841 15.0241 115.887 17.8528V17.9758Z" fill="white"/>
<path d="M61.4054 9.82788H57.9311V26.0156H61.4054V9.82788Z" fill="white"/>
<path d="M148.016 9.33618C147.97 9.33618 147.924 9.33618 147.878 9.33618C143.343 9.33618 139.669 13.1794 139.669 17.9143C139.669 18.0219 139.669 18.1449 139.669 18.2525C139.669 18.2832 139.669 18.314 139.669 18.3447C139.669 18.4369 139.684 18.5138 139.684 18.6061C139.7 18.8981 139.746 19.1902 139.792 19.4669C140.53 23.4793 144.096 26.5385 148.37 26.5385C150.937 26.5385 153.243 25.4316 154.842 23.6791L153.551 22.3878L152.382 21.2194C151.414 22.3417 149.984 23.0642 148.37 23.0642C146.049 23.0642 144.081 21.573 143.389 19.5131H143.435C143.42 19.4977 143.404 19.4823 143.389 19.4516H153.366H155.949H156.041C156.133 18.9442 156.179 18.4369 156.179 17.9143C156.179 13.2255 152.49 9.41305 148.016 9.33618ZM143.374 16.3155C143.973 14.3631 145.634 12.9334 147.632 12.7643C147.647 12.7643 147.663 12.7643 147.678 12.7643C147.724 12.7643 147.786 12.749 147.832 12.749C147.878 12.749 147.924 12.749 147.97 12.749C147.986 12.749 148.016 12.749 148.032 12.749C150.215 12.749 152.059 14.2555 152.705 16.3308H143.374V16.3155Z" fill="white"/>
<path d="M129.861 9.33618C129.815 9.33618 129.769 9.33618 129.723 9.33618C125.188 9.33618 121.513 13.1794 121.513 17.9143C121.513 18.0219 121.513 18.1449 121.513 18.2525C121.513 18.2832 121.513 18.314 121.513 18.3447C121.513 18.4369 121.529 18.5138 121.529 18.6061C121.544 18.8981 121.59 19.1902 121.636 19.4669C122.374 23.4793 125.941 26.5385 130.214 26.5385C132.782 26.5385 135.088 25.4316 136.686 23.6791L135.395 22.3878L134.227 21.2194C133.258 22.3417 131.829 23.0642 130.214 23.0642C127.893 23.0642 125.925 21.573 125.234 19.5131H125.28C125.264 19.4977 125.249 19.4823 125.234 19.4516H135.211H137.793H137.886C137.978 18.9442 138.024 18.4369 138.024 17.9143C138.024 13.2255 134.334 9.41305 129.861 9.33618ZM125.218 16.3155C125.818 14.3631 127.478 12.9334 129.477 12.7643C129.492 12.7643 129.507 12.7643 129.523 12.7643C129.569 12.7643 129.63 12.749 129.676 12.749C129.723 12.749 129.769 12.749 129.815 12.749C129.83 12.749 129.861 12.749 129.876 12.749C132.059 12.749 133.904 14.2555 134.55 16.3308H125.218V16.3155Z" fill="white"/>
<path d="M61.4361 3.49463H57.9311V6.99966H61.4361V3.49463Z" fill="white"/>
<path d="M42.8041 0.819336H39.3298V26.0156H42.8041V0.819336Z" fill="white"/>
<path d="M51.2745 9.82788L43.1729 17.9141L51.2745 26.0156H55.7942L47.6926 17.9141L55.7942 9.82788H51.2745Z" fill="white"/>
<path d="M161.806 0.81958H158.331V26.0158H161.806V0.81958Z" fill="white"/>
<path d="M170.276 9.82812L162.175 17.9143L170.276 26.0159H174.796L166.694 17.9143L174.796 9.82812H170.276Z" fill="white"/>
<path d="M67.7388 26.0154V17.7755C67.8157 14.993 69.9679 12.7485 72.6274 12.7485C75.3331 12.7485 77.2854 15.0698 77.2854 17.9292V26.0154H80.7443V17.9292C80.7443 13.1943 77.3162 9.35107 73.0886 9.35107C71.0133 9.35107 69.1378 10.2735 67.7542 11.78V9.82763H64.2799V26.0154H67.7388Z" fill="white"/>
<path d="M96.3172 26.0158H99.7915V0.81958H96.3172V11.7805C94.8414 10.2739 92.8122 9.3362 90.5831 9.3362C86.0481 9.3362 82.3739 13.1794 82.3739 17.9143C82.3739 22.6491 86.0481 26.4924 90.5831 26.4924C92.8122 26.4924 94.8414 25.5546 96.3172 24.0481V26.0158ZM91.0597 23.0796C88.1696 23.0796 85.8175 20.7583 85.8175 17.9143C85.8175 15.0549 88.1696 12.749 91.0597 12.749C93.9498 12.749 96.3018 15.0703 96.3018 17.9143C96.3018 20.7736 93.9652 23.0796 91.0597 23.0796Z" fill="white"/>
<path d="M25.3095 0.819336H14.5638L25.3095 11.565V0.819336Z" fill="white"/>
<path d="M0.113403 5.81543V21.0039L7.70764 13.4097L0.113403 5.81543Z" fill="white"/>
<path d="M25.3095 15.2698L14.5638 26.0155H25.3095V15.2698Z" fill="white"/>
<path d="M8.07656 0.819336H1.60452L14.195 13.4098L1.60452 26.0156H8.07656L20.6823 13.4098L8.07656 0.819336Z" fill="white"/>
</svg>
