<svg width="47" height="47" viewBox="0 0 47 47" fill="none" xmlns="http://www.w3.org/2000/svg">
<path d="M38.3597 46.7314H9.59686C4.83125 46.7314 0.957275 42.8574 0.957275 38.0918V9.32904C0.957275 4.56343 4.83125 0.689453 9.59686 0.689453H38.3597C43.1253 0.689453 46.9992 4.56343 46.9992 9.32904V38.0918C46.9992 42.8574 43.1406 46.7314 38.3597 46.7314Z" fill="#00BFBF"/>
<path d="M39.0513 8.63721H26.1995L39.0513 21.489V8.63721Z" fill="white"/>
<path d="M8.92029 14.6174V32.7882L18.0057 23.7028L8.92029 14.6174Z" fill="white"/>
<path d="M39.0513 25.916L26.1995 38.7678H39.0513V25.916Z" fill="white"/>
<path d="M18.4359 8.63721H10.688L25.7535 23.7027L10.688 38.7682H18.4359L33.5014 23.7027L18.4359 8.63721Z" fill="white"/>
</svg>
