<svg width="175" height="35" viewBox="0 0 175 35" fill="none" xmlns="http://www.w3.org/2000/svg">
<path d="M115.779 11.7651C114.303 10.2585 112.274 9.33618 110.06 9.33618C105.525 9.33618 101.851 13.1794 101.851 17.9143C101.851 22.6491 105.525 26.4924 110.06 26.4924C112.289 26.4924 114.303 25.5546 115.779 24.0634V26.0312C115.779 28.8752 113.427 31.1811 110.537 31.1811C108.415 31.1811 106.524 29.9513 105.71 28.0297L102.512 29.3978C103.88 32.5954 107.032 34.6554 110.537 34.6554C115.333 34.6554 119.253 30.7968 119.253 26.0466V9.84347H115.779V11.7651ZM115.779 17.9758C115.733 20.8044 113.411 23.0796 110.537 23.0796C107.646 23.0796 105.294 20.7583 105.294 17.9143C105.294 15.0549 107.646 12.749 110.537 12.749C113.411 12.749 115.733 15.0241 115.779 17.8528V17.9758Z" fill="#191919"/>
<path d="M61.2972 9.82788H57.823V26.0156H61.2972V9.82788Z" fill="#191919"/>
<path d="M147.908 9.33618C147.862 9.33618 147.816 9.33618 147.77 9.33618C143.235 9.33618 139.561 13.1794 139.561 17.9143C139.561 18.0219 139.561 18.1449 139.561 18.2525C139.561 18.2832 139.561 18.314 139.561 18.3447C139.561 18.4369 139.576 18.5138 139.576 18.6061C139.592 18.8981 139.638 19.1902 139.684 19.4669C140.422 23.4793 143.988 26.5385 148.262 26.5385C150.829 26.5385 153.135 25.4316 154.734 23.6791L153.443 22.3878L152.274 21.2194C151.306 22.3417 149.876 23.0642 148.262 23.0642C145.941 23.0642 143.973 21.573 143.281 19.5131H143.327C143.312 19.4977 143.296 19.4823 143.281 19.4516H153.258H155.841H155.933C156.025 18.9442 156.071 18.4369 156.071 17.9143C156.071 13.2255 152.382 9.41305 147.908 9.33618ZM143.266 16.3155C143.865 14.3631 145.525 12.9334 147.524 12.7643C147.539 12.7643 147.555 12.7643 147.57 12.7643C147.616 12.7643 147.678 12.749 147.724 12.749C147.77 12.749 147.816 12.749 147.862 12.749C147.878 12.749 147.908 12.749 147.924 12.749C150.107 12.749 151.951 14.2555 152.597 16.3308H143.266V16.3155Z" fill="#191919"/>
<path d="M129.753 9.33618C129.707 9.33618 129.661 9.33618 129.614 9.33618C125.079 9.33618 121.405 13.1794 121.405 17.9143C121.405 18.0219 121.405 18.1449 121.405 18.2525C121.405 18.2832 121.405 18.314 121.405 18.3447C121.405 18.4369 121.421 18.5138 121.421 18.6061C121.436 18.8981 121.482 19.1902 121.528 19.4669C122.266 23.4793 125.833 26.5385 130.106 26.5385C132.674 26.5385 134.98 25.4316 136.578 23.6791L135.287 22.3878L134.119 21.2194C133.15 22.3417 131.72 23.0642 130.106 23.0642C127.785 23.0642 125.817 21.573 125.126 19.5131H125.172C125.156 19.4977 125.141 19.4823 125.126 19.4516H135.103H137.685H137.777C137.87 18.9442 137.916 18.4369 137.916 17.9143C137.916 13.2255 134.226 9.41305 129.753 9.33618ZM125.11 16.3155C125.71 14.3631 127.37 12.9334 129.368 12.7643C129.384 12.7643 129.399 12.7643 129.415 12.7643C129.461 12.7643 129.522 12.749 129.568 12.749C129.614 12.749 129.66 12.749 129.707 12.749C129.722 12.749 129.753 12.749 129.768 12.749C131.951 12.749 133.796 14.2555 134.442 16.3308H125.11V16.3155Z" fill="#191919"/>
<path d="M61.328 3.49463H57.823V6.99966H61.328V3.49463Z" fill="#191919"/>
<path d="M42.6958 0.819336H39.2215V26.0156H42.6958V0.819336Z" fill="#191919"/>
<path d="M51.151 9.82788L43.0648 17.9141L51.151 26.0156H55.6706L47.5845 17.9141L55.6706 9.82788H51.151Z" fill="#191919"/>
<path d="M161.698 0.81958H158.223V26.0158H161.698V0.81958Z" fill="#191919"/>
<path d="M170.153 9.82812L162.066 17.9143L170.153 26.0159H174.672L166.586 17.9143L174.672 9.82812H170.153Z" fill="#191919"/>
<path d="M67.6153 26.0154V17.7755C67.6922 14.993 69.8444 12.7485 72.5039 12.7485C75.2096 12.7485 77.1619 15.0698 77.1619 17.9292V26.0154H80.6208V17.9292C80.6208 13.1943 77.1927 9.35107 72.9651 9.35107C70.8897 9.35107 69.0143 10.2735 67.6307 11.78V9.82763H64.1564V26.0154H67.6153Z" fill="#191919"/>
<path d="M96.2091 26.0158H99.6833V0.81958H96.2091V11.7805C94.7333 10.2739 92.704 9.3362 90.4749 9.3362C85.9399 9.3362 82.2658 13.1794 82.2658 17.9143C82.2658 22.6491 85.9399 26.4924 90.4749 26.4924C92.704 26.4924 94.7333 25.5546 96.2091 24.0481V26.0158ZM90.9515 23.0796C88.0614 23.0796 85.7093 20.7583 85.7093 17.9143C85.7093 15.0549 88.0614 12.749 90.9515 12.749C93.8416 12.749 96.1937 15.0703 96.1937 17.9143C96.1937 20.7736 93.8416 23.0796 90.9515 23.0796Z" fill="#191919"/>
<path d="M25.2012 0.819336H14.4555L25.2012 11.565V0.819336Z" fill="#00BFBF"/>
<path d="M0.00512695 5.81543V21.0039L7.59936 13.4097L0.00512695 5.81543Z" fill="#00BFBF"/>
<path d="M25.2012 15.2698L14.4555 26.0155H25.2012V15.2698Z" fill="#00BFBF"/>
<path d="M7.96825 0.819336H1.48087L14.0867 13.4098L1.48087 26.0156H7.96825L20.5587 13.4098L7.96825 0.819336Z" fill="#00BFBF"/>
</svg>
