<svg width="40" height="40" viewBox="0 0 40 40" fill="none" xmlns="http://www.w3.org/2000/svg">
<path d="M15 17.9167C12.4667 17.9167 10.4167 15.8667 10.4167 13.3333C10.4167 10.8 12.4667 8.75 15 8.75C17.5334 8.75 19.5834 10.8 19.5834 13.3333C19.5834 15.8667 17.5334 17.9167 15 17.9167ZM15 11.25C13.85 11.25 12.9167 12.1833 12.9167 13.3333C12.9167 14.4833 13.85 15.4167 15 15.4167C16.15 15.4167 17.0834 14.4833 17.0834 13.3333C17.0834 12.1833 16.15 11.25 15 11.25Z" fill="#9EDC57"/>
<path d="M25 37.9168H15C5.94998 37.9168 2.08331 34.0502 2.08331 25.0002V15.0002C2.08331 5.95016 5.94998 2.0835 15 2.0835H21.6666C22.35 2.0835 22.9166 2.65016 22.9166 3.3335C22.9166 4.01683 22.35 4.5835 21.6666 4.5835H15C7.31665 4.5835 4.58331 7.31683 4.58331 15.0002V25.0002C4.58331 32.6835 7.31665 35.4168 15 35.4168H25C32.6833 35.4168 35.4166 32.6835 35.4166 25.0002V16.6668C35.4166 15.9835 35.9833 15.4168 36.6666 15.4168C37.35 15.4168 37.9166 15.9835 37.9166 16.6668V25.0002C37.9166 34.0502 34.05 37.9168 25 37.9168Z" fill="#9EDC57"/>
<path d="M26.1167 16.2497C25.4667 16.2497 24.8667 16.0164 24.4334 15.5664C23.9167 15.0497 23.6667 14.2831 23.7834 13.4997L24.1167 11.1831C24.2 10.5997 24.55 9.88307 24.9834 9.4664L31.0334 3.4164C33.45 0.999735 35.55 2.38307 36.5834 3.4164C37.5667 4.39974 38.0167 5.43307 37.9167 6.49974C37.8334 7.34974 37.4 8.1664 36.5834 8.9664L30.5334 15.0164C30.1167 15.4331 29.4 15.7831 28.8167 15.8831L26.5 16.2164C26.3667 16.2497 26.2334 16.2497 26.1167 16.2497ZM32.7834 5.19974L26.7334 11.2497C26.6834 11.2997 26.6 11.4831 26.5834 11.5664L26.2667 13.7331L28.45 13.4331C28.5167 13.4164 28.7 13.3331 28.7667 13.2664L34.8167 7.2164C35.1834 6.84974 35.4 6.5164 35.4167 6.2664C35.45 5.9164 35.1 5.48307 34.8167 5.19974C33.95 4.33307 33.55 4.43307 32.7834 5.19974Z" fill="#9EDC57"/>
<path d="M34.8333 10.2166C34.7167 10.2166 34.6 10.1999 34.5 10.1666C32.2667 9.53326 30.4833 7.74993 29.85 5.5166C29.6667 4.84993 30.05 4.1666 30.7167 3.98326C31.3833 3.79993 32.0667 4.18326 32.25 4.84993C32.65 6.24993 33.7667 7.38326 35.1833 7.78326C35.85 7.9666 36.2333 8.6666 36.05 9.3166C35.8667 9.84993 35.3667 10.2166 34.8333 10.2166Z" fill="#9EDC57"/>
<path d="M4.45002 32.8336C4.05002 32.8336 3.65002 32.6336 3.41669 32.2836C3.03335 31.7169 3.18335 30.9336 3.75002 30.5503L11.9667 25.0336C13.7667 23.8336 16.25 23.9669 17.8834 25.3503L18.4334 25.8336C19.2667 26.5503 20.6834 26.5503 21.5 25.8336L28.4334 19.8836C30.2 18.3669 32.9834 18.3669 34.7667 19.8836L37.4834 22.2169C38 22.6669 38.0667 23.4503 37.6167 23.9836C37.1667 24.5003 36.3834 24.5669 35.85 24.1169L33.1334 21.7836C32.3 21.0669 30.8834 21.0669 30.0667 21.7836L23.1334 27.7336C21.3667 29.2503 18.5834 29.2503 16.8 27.7336L16.25 27.2503C15.4834 26.6003 14.2167 26.5336 13.3667 27.1169L5.16669 32.6336C4.93335 32.7669 4.68335 32.8336 4.45002 32.8336Z" fill="#9EDC57"/>
</svg>
