<svg width="40" height="40" viewBox="0 0 40 40" fill="none" xmlns="http://www.w3.org/2000/svg">
<path d="M20 35.4168H11.6667C5.58337 35.4168 2.08337 31.9168 2.08337 25.8335V14.1668C2.08337 8.0835 5.58337 4.5835 11.6667 4.5835H28.3334C34.4167 4.5835 37.9167 8.0835 37.9167 14.1668V19.1668C37.9167 19.8502 37.35 20.4168 36.6667 20.4168C35.9834 20.4168 35.4167 19.8502 35.4167 19.1668V14.1668C35.4167 9.40016 33.1 7.0835 28.3334 7.0835H11.6667C6.90004 7.0835 4.58337 9.40016 4.58337 14.1668V25.8335C4.58337 30.6002 6.90004 32.9168 11.6667 32.9168H20C20.6834 32.9168 21.25 33.4835 21.25 34.1668C21.25 34.8502 20.6834 35.4168 20 35.4168Z" fill="#9EDC57"/>
<path d="M19.9996 21.4499C18.5996 21.4499 17.1829 21.0166 16.0996 20.1333L10.8829 15.9666C10.3496 15.5333 10.2496 14.7499 10.6829 14.2166C11.1163 13.6833 11.8996 13.6 12.4329 14.0166L17.6496 18.1833C18.9162 19.2 21.0662 19.2 22.3329 18.1833L27.5496 14.0166C28.0829 13.5833 28.8662 13.6666 29.2996 14.2166C29.7329 14.7499 29.6496 15.5499 29.0996 15.9666L23.8829 20.1333C22.8162 21.0166 21.3996 21.4499 19.9996 21.4499Z" fill="#9EDC57"/>
<path d="M26.3667 36.2992C25.7334 36.2992 25.1334 36.0659 24.7001 35.6325C24.1834 35.1159 23.95 34.3659 24.0667 33.5825L24.3834 31.3325C24.4667 30.7492 24.8167 30.0492 25.2334 29.6325L31.1334 23.7325C31.9334 22.9325 32.7167 22.5159 33.5667 22.4325C34.6001 22.3325 35.6334 22.7659 36.6 23.7325C37.5667 24.6992 38 25.7159 37.9 26.7659C37.8167 27.5992 37.3834 28.3992 36.6 29.1992L30.7001 35.0992C30.2834 35.5159 29.5834 35.8659 29 35.9492L26.75 36.2659C26.6167 36.2825 26.5001 36.2992 26.3667 36.2992ZM33.85 24.9159C33.8334 24.9159 33.8167 24.9159 33.8 24.9159C33.5667 24.9326 33.25 25.1492 32.9 25.4992L27.0001 31.3992C26.9501 31.4492 26.8667 31.6159 26.8667 31.6826L26.5667 33.7659L28.65 33.4658C28.7167 33.4492 28.8834 33.3659 28.9334 33.3159L34.8334 27.4159C35.1834 27.0492 35.4 26.7492 35.4167 26.5159C35.45 26.1825 35.1167 25.7825 34.8334 25.4992C34.5667 25.2325 34.1834 24.9159 33.85 24.9159Z" fill="#9EDC57"/>
<path d="M34.8668 30.418C34.7501 30.418 34.6334 30.4014 34.5334 30.368C32.3334 29.7514 30.5835 28.0014 29.9668 25.8014C29.7835 25.1347 30.1668 24.4513 30.8334 24.2513C31.5001 24.068 32.1835 24.4514 32.3668 25.118C32.7501 26.4847 33.8334 27.568 35.2001 27.9513C35.8668 28.1347 36.2501 28.8347 36.0668 29.5014C35.9168 30.0514 35.4168 30.418 34.8668 30.418Z" fill="#9EDC57"/>
</svg>
