<svg width="40" height="40" viewBox="0 0 40 40" fill="none" xmlns="http://www.w3.org/2000/svg">
<path d="M30.1667 29.5835H9.83332C5.96666 29.5835 3.75 27.3668 3.75 23.5002V3.3335C3.75 2.65016 4.31667 2.0835 5 2.0835H35C35.6833 2.0835 36.25 2.65016 36.25 3.3335V23.5002C36.25 27.3668 34.0333 29.5835 30.1667 29.5835ZM6.25 4.5835V23.5002C6.25 25.9835 7.34999 27.0835 9.83332 27.0835H30.15C32.6333 27.0835 33.7333 25.9835 33.7333 23.5002V4.5835H6.25Z" fill="#9EDC57"/>
<path d="M36.6667 4.5835H3.33337C2.65004 4.5835 2.08337 4.01683 2.08337 3.3335C2.08337 2.65016 2.65004 2.0835 3.33337 2.0835H36.6667C37.35 2.0835 37.9167 2.65016 37.9167 3.3335C37.9167 4.01683 37.35 4.5835 36.6667 4.5835Z" fill="#9EDC57"/>
<path d="M13.3338 37.9168C12.8671 37.9168 12.4338 37.6668 12.2171 37.2335C11.9004 36.6168 12.1505 35.8668 12.7838 35.5501L18.7504 32.5668V28.3335C18.7504 27.6502 19.3171 27.0835 20.0004 27.0835C20.6838 27.0835 21.2504 27.6502 21.2504 28.3335V33.3335C21.2504 33.8002 20.9838 34.2335 20.5504 34.4502L13.8838 37.7835C13.7171 37.8669 13.5171 37.9168 13.3338 37.9168Z" fill="#9EDC57"/>
<path d="M26.6666 37.9166C26.4833 37.9166 26.2833 37.8666 26.1166 37.7833L19.45 34.45C18.8333 34.1333 18.5832 33.3833 18.8832 32.7666C19.1999 32.15 19.9499 31.9 20.5666 32.2L27.2333 35.5333C27.8499 35.85 28.0999 36.5999 27.7999 37.2166C27.5666 37.6666 27.1166 37.9166 26.6666 37.9166Z" fill="#9EDC57"/>
<path d="M12.4998 19.5834C12.1498 19.5834 11.7832 19.4334 11.5332 19.1334C11.0832 18.6001 11.1665 17.8167 11.6998 17.3667L16.9499 12.9834C17.4332 12.5834 18.0498 12.4167 18.6332 12.5167C19.2332 12.6167 19.7499 12.9834 20.0665 13.5167L21.8165 16.4334L26.6998 12.3667C27.2332 11.9334 28.0165 12 28.4665 12.5334C28.9165 13.0667 28.8332 13.85 28.2999 14.3L23.0498 18.6834C22.5665 19.0834 21.9498 19.25 21.3665 19.15C20.7665 19.05 20.2498 18.6834 19.9332 18.1501L18.1832 15.2334L13.2999 19.3C13.0665 19.4834 12.7832 19.5834 12.4998 19.5834Z" fill="#9EDC57"/>
</svg>
