<svg width="40" height="40" viewBox="0 0 40 40" fill="none" xmlns="http://www.w3.org/2000/svg">
<path d="M8.33334 36.4496C7.10001 36.4496 5.88334 35.983 4.95001 35.0496C4.05001 34.1496 3.55001 32.9496 3.55001 31.6663C3.55001 30.383 4.05001 29.183 4.95001 28.283L26.6167 6.61631C28.4833 4.74964 31.5167 4.74964 33.3833 6.61631C34.2833 7.51631 34.7833 8.71631 34.7833 9.99964C34.7833 11.283 34.2833 12.483 33.3833 13.383L11.7167 35.0496C10.7833 35.983 9.56668 36.4496 8.33334 36.4496ZM30 7.71631C29.4167 7.71631 28.8333 7.93298 28.3833 8.38298L6.71668 30.0496C6.28334 30.483 6.05001 31.0496 6.05001 31.6663C6.05001 32.283 6.28334 32.8496 6.71668 33.283C7.60001 34.1663 9.06668 34.1663 9.95001 33.283L31.6167 11.6163C32.05 11.183 32.2833 10.6163 32.2833 9.99964C32.2833 9.38298 32.05 8.81631 31.6167 8.38298C31.1667 7.93298 30.5833 7.71631 30 7.71631Z" fill="#9EDC57"/>
<path d="M30.0167 16.2331C29.7 16.2331 29.3833 16.1165 29.1333 15.8665L24.1333 10.8665C23.65 10.3831 23.65 9.58314 24.1333 9.0998C24.6167 8.61647 25.4167 8.61647 25.9 9.0998L30.9 14.0998C31.3833 14.5831 31.3833 15.3831 30.9 15.8665C30.65 16.1165 30.3333 16.2331 30.0167 16.2331Z" fill="#9EDC57"/>
<path d="M16.6667 9.16659C16.5833 9.16659 16.5167 9.14992 16.4333 9.13326L14.1667 8.46659L11.9 9.13326C11.6 9.21659 11.2833 9.13326 11.0833 8.91659C10.8667 8.69992 10.7833 8.39992 10.8667 8.09992L11.5333 5.83326L10.8667 3.56659C10.7833 3.26659 10.8667 2.94992 11.0833 2.74992C11.3 2.53326 11.6167 2.44992 11.9 2.53326L14.1667 3.19992L16.4333 2.53326C16.7333 2.44992 17.0333 2.53326 17.25 2.74992C17.4667 2.96659 17.55 3.28326 17.4667 3.56659L16.8 5.83326L17.4667 8.09992C17.55 8.39992 17.4667 8.71659 17.25 8.91659C17.1 9.08326 16.8833 9.16659 16.6667 9.16659ZM14.1667 6.76659C14.25 6.76659 14.3167 6.78326 14.4 6.79992L15.4333 7.09992L15.1333 6.06659C15.0833 5.91659 15.0833 5.74992 15.1333 5.59992L15.4333 4.56659L14.4 4.86659C14.25 4.91659 14.0833 4.91659 13.9333 4.86659L12.9 4.56659L13.2 5.59992C13.25 5.74992 13.25 5.91659 13.2 6.06659L12.9 7.09992L13.9333 6.79992C14.0167 6.78326 14.0833 6.76659 14.1667 6.76659Z" fill="#9EDC57"/>
<path d="M10 19.1666C9.91668 19.1666 9.85001 19.1499 9.76668 19.1333L7.50001 18.4666L5.23335 19.1333C4.93335 19.2166 4.63335 19.1333 4.41668 18.9166C4.20001 18.6999 4.11668 18.3833 4.20001 18.0999L4.86668 15.8333L4.20001 13.5666C4.11668 13.2666 4.20001 12.9499 4.41668 12.7499C4.63335 12.5499 4.95001 12.4499 5.23335 12.5333L7.50001 13.1999L9.76668 12.5333C10.05 12.4499 10.3667 12.5333 10.5833 12.7499C10.8 12.9666 10.8833 13.2833 10.8 13.5666L10.1333 15.8333L10.8 18.0999C10.8833 18.3999 10.8 18.7166 10.5833 18.9166C10.4333 19.0833 10.2167 19.1666 10 19.1666ZM7.50001 16.7666C7.58335 16.7666 7.65001 16.7833 7.73335 16.7999L8.76668 17.0999L8.46668 16.0666C8.41668 15.9166 8.41668 15.7499 8.46668 15.5999L8.76668 14.5666L7.73335 14.8666C7.58335 14.9166 7.41668 14.9166 7.26668 14.8666L6.23335 14.5666L6.53335 15.5999C6.58335 15.7499 6.58335 15.9166 6.53335 16.0666L6.23335 17.0999L7.26668 16.7999C7.35001 16.7833 7.41668 16.7666 7.50001 16.7666Z" fill="#9EDC57"/>
<path d="M35 27.5001C34.9167 27.5001 34.85 27.4834 34.7667 27.4668L32.5 26.8001L30.2333 27.4668C29.9333 27.5501 29.6333 27.4668 29.4167 27.2501C29.2 27.0334 29.1167 26.7168 29.2 26.4334L29.8667 24.1668L29.2 21.9001C29.1167 21.6001 29.2 21.2834 29.4167 21.0834C29.6333 20.8834 29.95 20.7834 30.2333 20.8668L32.5 21.5334L34.7667 20.8668C35.05 20.7834 35.3667 20.8668 35.5833 21.0834C35.8 21.3001 35.8833 21.6168 35.8 21.9001L35.1333 24.1668L35.8 26.4334C35.8833 26.7334 35.8 27.0501 35.5833 27.2501C35.4333 27.4168 35.2167 27.5001 35 27.5001ZM32.5 25.1001C32.5833 25.1001 32.65 25.1168 32.7333 25.1334L33.7667 25.4334L33.4667 24.4001C33.4167 24.2501 33.4167 24.0834 33.4667 23.9334L33.7667 22.9001L32.7333 23.2001C32.5833 23.2501 32.4167 23.2501 32.2667 23.2001L31.2333 22.9001L31.5333 23.9334C31.5833 24.0834 31.5833 24.2501 31.5333 24.4001L31.2333 25.4334L32.2667 25.1334C32.35 25.1168 32.4167 25.1001 32.5 25.1001Z" fill="#9EDC57"/>
</svg>
