<svg width="40" height="40" viewBox="0 0 40 40" fill="none" xmlns="http://www.w3.org/2000/svg">
<path d="M13.3333 9.58301C12.65 9.58301 12.0833 9.01634 12.0833 8.33301V3.33301C12.0833 2.64967 12.65 2.08301 13.3333 2.08301C14.0167 2.08301 14.5833 2.64967 14.5833 3.33301V8.33301C14.5833 9.01634 14.0167 9.58301 13.3333 9.58301Z" fill="#9EDC57"/>
<path d="M26.6667 9.58301C25.9833 9.58301 25.4167 9.01634 25.4167 8.33301V3.33301C25.4167 2.64967 25.9833 2.08301 26.6667 2.08301C27.35 2.08301 27.9167 2.64967 27.9167 3.33301V8.33301C27.9167 9.01634 27.35 9.58301 26.6667 9.58301Z" fill="#9EDC57"/>
<path d="M26.6667 37.9163H13.3333C7.25 37.9163 3.75 34.4163 3.75 28.333V14.1663C3.75 8.08301 7.25 4.58301 13.3333 4.58301H26.6667C32.75 4.58301 36.25 8.08301 36.25 14.1663V28.333C36.25 34.4163 32.75 37.9163 26.6667 37.9163ZM13.3333 7.08301C8.56667 7.08301 6.25 9.39967 6.25 14.1663V28.333C6.25 33.0997 8.56667 35.4163 13.3333 35.4163H26.6667C31.4333 35.4163 33.75 33.0997 33.75 28.333V14.1663C33.75 9.39967 31.4333 7.08301 26.6667 7.08301H13.3333Z" fill="#9EDC57"/>
<path d="M26.6667 19.583H13.3333C12.65 19.583 12.0833 19.0163 12.0833 18.333C12.0833 17.6497 12.65 17.083 13.3333 17.083H26.6667C27.35 17.083 27.9167 17.6497 27.9167 18.333C27.9167 19.0163 27.35 19.583 26.6667 19.583Z" fill="#9EDC57"/>
<path d="M20 27.917H13.3333C12.65 27.917 12.0833 27.3503 12.0833 26.667C12.0833 25.9837 12.65 25.417 13.3333 25.417H20C20.6833 25.417 21.25 25.9837 21.25 26.667C21.25 27.3503 20.6833 27.917 20 27.917Z" fill="#9EDC57"/>
</svg>
