<svg width="207" height="209" viewBox="0 0 207 209" fill="none" xmlns="http://www.w3.org/2000/svg">
<path d="M2.00109 46.4053L59.4124 104.397L2.00109 162.389V46.4053ZM0 41.5427V167.271L62.234 104.417L0 41.5427Z" fill="#00BFBF"/>
<path d="M115.683 104.397L90.089 78.5428L12.3466 0H65.7957L169.132 104.397L65.7957 208.794H12.3466L90.089 130.271L115.683 104.397Z" fill="#00BFBF"/>
<path d="M204.692 2.00109V83.4655L198.408 77.1221L124.028 1.98106H204.692M206.693 0H119.245L196.988 78.5428L206.693 88.3482V0Z" fill="#00BFBF"/>
<path d="M204.692 125.328V206.793H124.048L198.428 131.672L204.692 125.328ZM206.693 120.466L196.988 130.271L119.245 208.814H206.693V120.466Z" fill="#00BFBF"/>
</svg>
