<svg width="207" height="209" viewBox="0 0 207 209" fill="none" xmlns="http://www.w3.org/2000/svg">
<path d="M62.214 104.397L6.10352e-05 167.271V41.5427L62.214 104.397Z" fill="#00BFBF"/>
<path d="M64.9553 2.00109L166.311 104.397L64.9553 206.793H17.1293L91.5098 131.672L117.104 105.818L118.505 104.417L117.104 103.016L91.5098 77.1621L17.1293 2.02109H64.9553M65.7758 0H12.3266L90.069 78.5428L115.663 104.397L90.069 130.251L12.3266 208.794H65.7758L169.112 104.397L65.7758 0Z" fill="#00BFBF"/>
<path d="M204.692 2.00109V83.4655L198.408 77.1221L124.028 1.98106H204.692M206.693 0H119.245L196.988 78.5428L206.693 88.3482V0Z" fill="#00BFBF"/>
<path d="M204.692 125.328V206.793H124.048L198.428 131.672L204.692 125.328ZM206.693 120.466L196.988 130.271L119.245 208.814H206.693V120.466Z" fill="#00BFBF"/>
</svg>
