<svg width="793" height="276" viewBox="0 0 793 276" fill="none" xmlns="http://www.w3.org/2000/svg">
<path d="M448.183 107.692C439.515 98.8997 427.708 93.4095 414.664 93.4095C388.12 93.4095 366.572 115.907 366.572 143.648C366.572 171.388 388.079 193.886 414.664 193.886C427.708 193.886 439.515 188.437 448.183 179.645V191.121C448.183 207.715 434.437 221.255 417.512 221.255C405.128 221.255 394.023 214.031 389.235 202.803L370.535 210.811C378.543 229.511 396.996 241.565 417.512 241.565C445.624 241.565 468.493 218.944 468.535 191.121V96.2577H448.225V107.692H448.183ZM448.183 144.061C447.936 160.573 434.313 173.948 417.512 173.948C400.546 173.948 386.799 160.408 386.799 143.648C386.799 126.929 400.546 113.348 417.512 113.348C434.313 113.348 447.977 126.681 448.183 143.235V144.061Z" fill="white"/>
<path d="M129.208 96.2989H108.898V191.079H129.208V96.2989Z" fill="white"/>
<path d="M636.299 93.4508C636.01 93.4508 635.763 93.4508 635.474 93.4508C608.93 93.4508 587.382 115.949 587.382 143.689C587.382 144.35 587.382 145.01 587.423 145.671C587.423 145.836 587.423 146.042 587.464 146.207C587.506 146.703 587.506 147.198 587.547 147.694C587.671 149.386 587.877 151.079 588.166 152.73H588.207C592.501 176.26 613.389 194.175 638.405 194.175C653.431 194.175 666.971 187.736 676.3 177.457L668.746 169.902L661.893 163.05C656.279 169.655 647.817 173.824 638.405 173.824C624.823 173.824 613.265 165.073 609.26 153.019H609.549C609.467 152.936 609.384 152.812 609.26 152.688H667.631H682.74H683.318C683.813 149.758 684.102 146.744 684.102 143.648C684.102 116.196 662.471 93.9049 636.299 93.4508ZM609.137 134.319C612.645 122.925 622.388 114.504 634.111 113.472C634.194 113.472 634.276 113.472 634.359 113.472C634.648 113.431 634.978 113.431 635.267 113.431C635.556 113.431 635.804 113.431 636.093 113.389C636.217 113.389 636.341 113.389 636.464 113.389H636.506H636.547C649.344 113.389 660.159 122.182 663.916 134.319H609.137Z" fill="white"/>
<path d="M530.001 93.4508C529.712 93.4508 529.465 93.4508 529.176 93.4508C502.632 93.4508 481.084 115.949 481.084 143.689C481.084 144.35 481.084 145.01 481.125 145.671C481.125 145.836 481.125 146.042 481.167 146.207C481.208 146.703 481.208 147.198 481.249 147.694C481.373 149.386 481.579 151.079 481.868 152.73H481.91C486.203 176.26 507.091 194.175 532.107 194.175C547.133 194.175 560.673 187.736 570.002 177.457L562.448 169.902L555.595 163.05C549.981 169.655 541.519 173.824 532.107 173.824C518.525 173.824 506.967 165.073 502.963 153.019H503.252C503.169 152.936 503.087 152.812 502.963 152.688H561.333H576.442H577.02C577.515 149.758 577.804 146.744 577.804 143.648C577.804 116.196 556.173 93.9049 530.001 93.4508ZM502.839 134.319C506.348 122.925 516.09 114.504 527.814 113.472C527.896 113.472 527.979 113.472 528.061 113.472C528.35 113.431 528.68 113.431 528.969 113.431C529.258 113.431 529.506 113.431 529.795 113.389C529.919 113.389 530.043 113.389 530.167 113.389H530.208H530.249C543.046 113.389 553.862 122.182 557.618 134.319H502.839Z" fill="white"/>
<path d="M129.414 59.229H108.898V79.7455H129.414V59.229Z" fill="white"/>
<path d="M20.31 43.5424H0V191.038H20.31V43.5424Z" fill="white"/>
<path d="M69.8879 96.2989L22.4978 143.689L69.8879 191.079H96.3487L48.9586 143.689L96.3487 96.2989H69.8879Z" fill="white"/>
<path d="M716.961 43.5424H696.651V191.038H716.961V43.5424Z" fill="white"/>
<path d="M766.539 96.2989L719.149 143.689L766.539 191.079H793L745.61 143.689L793 96.2989H766.539Z" fill="white"/>
<path d="M166.279 191.079V142.822C166.733 126.516 179.323 113.389 194.886 113.389C210.697 113.389 222.173 126.971 222.173 143.73V191.079H242.4V143.73C242.4 115.99 222.338 93.4508 197.569 93.4508C185.392 93.4508 174.411 98.8999 166.32 107.693V96.2991H146.01V191.079H166.279Z" fill="white"/>
<path d="M333.63 191.079H353.94V43.5838H333.63V107.775C324.961 98.941 313.114 93.4507 300.028 93.4507C273.484 93.4507 251.936 115.949 251.936 143.689C251.936 171.43 273.443 193.928 300.028 193.928C313.114 193.928 324.961 188.437 333.63 179.603V191.079ZM302.876 173.948C285.91 173.948 272.163 160.408 272.163 143.648C272.163 126.929 285.91 113.348 302.876 113.348C319.842 113.348 333.589 126.888 333.589 143.648C333.547 160.366 319.801 173.948 302.876 173.948Z" fill="white"/>
<path d="M696.652 0.982178H684.102V275.374H696.652V0.982178Z" fill="#00BFBF"/>
<path d="M481.084 0.982178H468.534V275.374H481.084V0.982178Z" fill="#00BFBF"/>
<path d="M366.53 0.982178H353.981V275.374H366.53V0.982178Z" fill="#00BFBF"/>
<path opacity="0.37" d="M251.976 0.982178H242.399V275.374H251.976V0.982178Z" fill="#00BFBF"/>
<path opacity="0.37" d="M587.381 0.982178H577.804V275.374H587.381V0.982178Z" fill="#00BFBF"/>
<path d="M108.898 1.10614H96.349V275.498H108.898V1.10614Z" fill="#00BFBF"/>
<path d="M145.968 1.10614H129.249V275.498H145.968V1.10614Z" fill="#00BC78"/>
</svg>
