<svg width="207" height="209" viewBox="0 0 207 209" fill="none" xmlns="http://www.w3.org/2000/svg">
<path d="M62.2341 104.397L0.00012207 167.271V41.5427L62.2341 104.397Z" fill="#00BFBF"/>
<path d="M64.9558 2.00109L166.311 104.397L64.9558 206.793H17.1297L91.5104 131.672L117.104 105.818L118.505 104.417L117.104 103.016L91.5104 77.1621L17.1297 2.02109H64.9558M65.7963 0H12.3472L90.0896 78.5428L115.683 104.397L90.0896 130.251L12.3472 208.794H65.7963L169.133 104.397L65.7963 0Z" fill="#00BFBF"/>
<path d="M119.245 0H206.693V88.3482L196.988 78.5428L119.245 0Z" fill="#00BFBF"/>
<path d="M206.693 120.466V208.794H119.245L196.988 130.271L206.693 120.466Z" fill="#00BFBF"/>
</svg>
