<svg width="80" height="80" viewBox="0 0 80 80" fill="none" xmlns="http://www.w3.org/2000/svg">
<g clip-path="url(#clip0_0_118)">
<g filter="url(#filter0_d_0_118)">
<rect width="80" height="80" rx="20" fill="white"/>
</g>
<path d="M61.2049 26.6511C49.0346 15.1097 29.9587 15.1172 17.7974 26.668C17.2829 27.1819 16.9958 27.8805 17.0001 28.6076C16.9925 29.33 17.2798 30.0244 17.7955 30.5303L22.2523 34.989C23.3281 35.9898 24.9884 36.0085 26.0864 35.0322C27.4472 33.7657 28.9806 32.6984 30.6407 31.8622C31.5474 31.312 32.0736 30.3038 32.0063 29.2454V24.3082C34.468 23.7613 36.9893 23.5294 39.5094 23.6179C42.0301 23.5221 44.5525 23.756 47.0125 24.3139V29.2453C46.92 30.3038 47.4382 31.3226 48.348 31.8714C50.0186 32.7009 51.5597 33.7688 52.9231 35.0414C53.4405 35.5212 54.1194 35.789 54.8251 35.7917C55.5511 35.7987 56.2499 35.5159 56.7665 35.0057L61.2253 30.547C62.2925 29.4646 62.2841 27.7232 61.2065 26.6511L61.2049 26.6511Z" fill="#F7E36D"/>
<g opacity="0.58">
<path d="M39.5095 44.2422C41.5815 44.2422 43.2611 42.5626 43.2611 40.4906C43.2611 38.4187 41.5815 36.739 39.5095 36.739C37.4376 36.739 35.7579 38.4187 35.7579 40.4906C35.7579 42.5626 37.4376 44.2422 39.5095 44.2422Z" fill="#F7E36D"/>
<path d="M39.5095 53.6211C41.5815 53.6211 43.2611 51.9415 43.2611 49.8695C43.2611 47.7976 41.5815 46.1179 39.5095 46.1179C37.4376 46.1179 35.7579 47.7976 35.7579 49.8695C35.7579 51.9415 37.4376 53.6211 39.5095 53.6211Z" fill="#F7E36D"/>
<path d="M39.5095 63C41.5815 63 43.2611 61.3204 43.2611 59.2484C43.2611 57.1765 41.5815 55.4968 39.5095 55.4968C37.4376 55.4968 35.7579 57.1765 35.7579 59.2484C35.7579 61.3204 37.4376 63 39.5095 63Z" fill="#F7E36D"/>
<path d="M48.8884 44.2422C50.9603 44.2422 52.64 42.5626 52.64 40.4906C52.64 38.4187 50.9603 36.739 48.8884 36.739C46.8164 36.739 45.1368 38.4187 45.1368 40.4906C45.1368 42.5626 46.8164 44.2422 48.8884 44.2422Z" fill="#F7E36D"/>
<path d="M48.8884 53.6211C50.9603 53.6211 52.64 51.9415 52.64 49.8695C52.64 47.7976 50.9603 46.1179 48.8884 46.1179C46.8164 46.1179 45.1368 47.7976 45.1368 49.8695C45.1368 51.9415 46.8164 53.6211 48.8884 53.6211Z" fill="#F7E36D"/>
<path d="M48.8884 63C50.9603 63 52.64 61.3204 52.64 59.2484C52.64 57.1765 50.9603 55.4968 48.8884 55.4968C46.8164 55.4968 45.1368 57.1765 45.1368 59.2484C45.1368 61.3204 46.8164 63 48.8884 63Z" fill="#F7E36D"/>
<path d="M30.1306 44.2422C32.2025 44.2422 33.8822 42.5626 33.8822 40.4906C33.8822 38.4187 32.2025 36.739 30.1306 36.739C28.0586 36.739 26.379 38.4187 26.379 40.4906C26.379 42.5626 28.0586 44.2422 30.1306 44.2422Z" fill="#F7E36D"/>
<path d="M30.1306 53.6211C32.2025 53.6211 33.8822 51.9415 33.8822 49.8695C33.8822 47.7976 32.2025 46.1179 30.1306 46.1179C28.0586 46.1179 26.379 47.7976 26.379 49.8695C26.379 51.9415 28.0586 53.6211 30.1306 53.6211Z" fill="#F7E36D"/>
<path d="M30.1306 63C32.2025 63 33.8822 61.3204 33.8822 59.2484C33.8822 57.1765 32.2025 55.4968 30.1306 55.4968C28.0586 55.4968 26.379 57.1765 26.379 59.2484C26.379 61.3204 28.0586 63 30.1306 63Z" fill="#F7E36D"/>
</g>
</g>
<defs>
<filter id="filter0_d_0_118" x="-35" y="-17" width="150" height="150" filterUnits="userSpaceOnUse" color-interpolation-filters="sRGB">
<feFlood flood-opacity="0" result="BackgroundImageFix"/>
<feColorMatrix in="SourceAlpha" type="matrix" values="0 0 0 0 0 0 0 0 0 0 0 0 0 0 0 0 0 0 127 0" result="hardAlpha"/>
<feOffset dy="18"/>
<feGaussianBlur stdDeviation="17.5"/>
<feColorMatrix type="matrix" values="0 0 0 0 0.760784 0 0 0 0 0.760784 0 0 0 0 0.760784 0 0 0 0.160784 0"/>
<feBlend mode="normal" in2="BackgroundImageFix" result="effect1_dropShadow_0_118"/>
<feBlend mode="normal" in="SourceGraphic" in2="effect1_dropShadow_0_118" result="shape"/>
</filter>
<clipPath id="clip0_0_118">
<rect width="80" height="80" fill="white"/>
</clipPath>
</defs>
</svg>
