<svg width="80" height="80" viewBox="0 0 80 80" fill="none" xmlns="http://www.w3.org/2000/svg">
<g clip-path="url(#clip0_0_118)">
<rect width="80" height="80" rx="20" fill="#1DEBEB"/>
<path fill-rule="evenodd" clip-rule="evenodd" d="M51.0127 25.7939C49.1206 25.7939 47.6041 27.3105 47.6041 29.2025C47.6041 31.024 49.005 32.492 50.7784 32.6071C50.9272 32.5939 51.0795 32.5939 51.2283 32.6071C52.9986 32.4922 54.4056 31.026 54.4212 29.1975C54.4186 27.3229 52.8995 25.7939 51.0127 25.7939ZM44.8101 29.2025C44.8101 25.7675 47.5776 23 51.0127 23C54.4513 23 57.2152 25.7896 57.2152 29.2025V29.2125H57.2151C57.1912 32.5632 54.5537 35.2838 51.2309 35.4041C51.1548 35.4069 51.0787 35.4034 51.0033 35.3938C50.9279 35.4034 50.8518 35.4069 50.7758 35.4041C47.4548 35.2838 44.8101 32.5628 44.8101 29.2025Z" fill="black"/>
<path fill-rule="evenodd" clip-rule="evenodd" d="M49.0036 37.1126C51.8338 36.6166 55.061 37.0895 57.4071 38.6471L57.4096 38.6487C59.0132 39.7183 60 41.2682 60 42.9961C60 44.7239 59.0132 46.2738 57.4096 47.3434C55.0809 48.9028 51.8923 49.374 49.0692 48.8998C48.3088 48.772 47.7958 48.0517 47.9235 47.2908C48.0511 46.53 48.7711 46.0167 49.5316 46.1445C51.8082 46.5269 54.2404 46.1045 55.8581 45.0204L55.8607 45.0187C56.882 44.3375 57.2076 43.5778 57.2076 42.9961C57.2076 42.4146 56.8822 41.6552 55.862 40.9742C54.2242 39.8875 51.7555 39.4667 49.4855 39.8646C48.7259 39.9977 48.0023 39.4896 47.8693 38.7297C47.7362 37.9697 48.2441 37.2458 49.0036 37.1126Z" fill="black"/>
<path fill-rule="evenodd" clip-rule="evenodd" d="M22.7848 29.2025C22.7848 25.7896 25.5487 23 28.9873 23C32.4224 23 35.1899 25.7675 35.1899 29.2025C35.1899 32.5628 32.5452 35.2838 29.2242 35.4041C29.1482 35.4069 29.0721 35.4034 28.9967 35.3938C28.9212 35.4034 28.8451 35.4069 28.7691 35.4041C25.4463 35.2838 22.8088 32.5632 22.7848 29.2125L22.7848 29.2025ZM25.5787 29.1976C25.5943 31.026 27.0014 32.4922 28.7717 32.6071C28.9205 32.5939 29.0728 32.5939 29.2216 32.6071C30.995 32.492 32.3959 31.024 32.3959 29.2025C32.3959 27.3105 30.8794 25.7939 28.9873 25.7939C27.1005 25.7939 25.5814 27.3229 25.5787 29.1976Z" fill="black"/>
<path fill-rule="evenodd" clip-rule="evenodd" d="M24.1381 40.9742C25.7758 39.8875 28.2445 39.4667 30.5145 39.8646C31.2741 39.9977 31.9977 39.4896 32.1307 38.7297C32.2638 37.9697 31.7559 37.2458 30.9964 37.1126C28.1661 36.6166 24.939 37.0895 22.5929 38.6471L22.5929 38.6471L22.5904 38.6487C20.9868 39.7183 20 41.2682 20 42.9961C20 44.7235 20.9863 46.273 22.5891 47.3425C24.9179 48.9026 28.1072 49.3741 30.9308 48.8998C31.6912 48.772 32.2042 48.0517 32.0765 47.2908C31.9489 46.53 31.2289 46.0167 30.4684 46.1445C28.1918 46.5269 25.7596 46.1045 24.1419 45.0204L24.1393 45.0187C23.118 44.3375 22.7924 43.5778 22.7924 42.9961C22.7924 42.4146 23.1178 41.6552 24.1381 40.9742Z" fill="black"/>
<path fill-rule="evenodd" clip-rule="evenodd" d="M39.8734 39.718C37.9814 39.718 36.4648 41.2346 36.4648 43.1266C36.4648 44.9481 37.8658 46.4161 39.6392 46.5311C39.79 46.5177 39.9445 46.5179 40.0953 46.5317C41.8513 46.431 43.2663 44.96 43.282 43.1216C43.2793 41.247 41.7602 39.718 39.8734 39.718ZM33.6709 43.1266C33.6709 39.6915 36.4383 36.9241 39.8734 36.9241C43.312 36.9241 46.0759 39.7137 46.0759 43.1266V43.1366H46.0759C46.052 46.4783 43.4212 49.2317 40.0815 49.3285C40.0089 49.3307 39.9362 49.3271 39.8641 49.3179C39.7887 49.3275 39.7126 49.331 39.6366 49.3282C36.3155 49.2079 33.6709 46.4868 33.6709 43.1266Z" fill="black"/>
<path fill-rule="evenodd" clip-rule="evenodd" d="M40.1335 50.8481C42.2969 50.8481 44.535 51.3907 46.2845 52.5653C47.8793 53.636 48.8607 55.1875 48.8607 56.9171C48.8607 58.6465 47.8796 60.1978 46.2852 61.2685C44.5282 62.4514 42.2909 63 40.1266 63C37.9622 63 35.725 62.4514 33.968 61.2685C32.3736 60.1978 31.3924 58.6465 31.3924 56.9171C31.3924 55.1875 32.3738 53.636 33.9686 52.5653L33.972 52.563L33.972 52.563C35.729 51.3908 37.9697 50.8481 40.1335 50.8481ZM35.5075 54.8934C34.493 55.5751 34.1696 56.3351 34.1696 56.9171C34.1696 57.4994 34.4934 58.2599 35.5091 58.9419L35.5108 58.943C36.716 59.7547 38.3848 60.2033 40.1266 60.2033C41.8684 60.2033 43.5372 59.7547 44.7424 58.943L44.744 58.9419C45.7597 58.2599 46.0836 57.4994 46.0836 56.9171C46.0836 56.3348 45.7597 55.5743 44.744 54.8923C43.5498 54.0905 41.8813 53.6449 40.1335 53.6449C38.387 53.6449 36.7127 54.09 35.5075 54.8934Z" fill="black"/>
</g>
<defs>
<clipPath id="clip0_0_118">
<rect width="80" height="80" fill="white"/>
</clipPath>
</defs>
</svg>
