<svg width="81" height="80" viewBox="0 0 81 80" fill="none" xmlns="http://www.w3.org/2000/svg">
<g clip-path="url(#clip0_0_135)">
<rect x="0.0285645" width="80" height="80" rx="20" fill="#1DEBEB"/>
<path d="M35 37.9167C32.4667 37.9167 30.4167 35.8667 30.4167 33.3333C30.4167 30.8 32.4667 28.75 35 28.75C37.5333 28.75 39.5833 30.8 39.5833 33.3333C39.5833 35.8667 37.5333 37.9167 35 37.9167ZM35 31.25C33.85 31.25 32.9167 32.1833 32.9167 33.3333C32.9167 34.4833 33.85 35.4167 35 35.4167C36.15 35.4167 37.0833 34.4833 37.0833 33.3333C37.0833 32.1833 36.15 31.25 35 31.25Z" fill="#202020"/>
<path d="M45 57.9167H35C25.95 57.9167 22.0833 54.05 22.0833 45V35C22.0833 25.95 25.95 22.0834 35 22.0834H41.6667C42.35 22.0834 42.9167 22.65 42.9167 23.3334C42.9167 24.0167 42.35 24.5834 41.6667 24.5834H35C27.3167 24.5834 24.5833 27.3167 24.5833 35V45C24.5833 52.6834 27.3167 55.4167 35 55.4167H45C52.6833 55.4167 55.4167 52.6834 55.4167 45V36.6667C55.4167 35.9834 55.9833 35.4167 56.6667 35.4167C57.35 35.4167 57.9167 35.9834 57.9167 36.6667V45C57.9167 54.05 54.05 57.9167 45 57.9167Z" fill="#202020"/>
<path d="M46.1167 36.25C45.4667 36.25 44.8667 36.0166 44.4333 35.5666C43.9167 35.05 43.6667 34.2833 43.7833 33.5L44.1167 31.1833C44.2 30.6 44.55 29.8833 44.9833 29.4666L51.0333 23.4166C53.45 21 55.55 22.3833 56.5833 23.4166C57.5667 24.4 58.0167 25.4333 57.9167 26.5C57.8333 27.35 57.4 28.1666 56.5833 28.9666L50.5333 35.0166C50.1167 35.4333 49.4 35.7833 48.8167 35.8833L46.5 36.2166C46.3667 36.25 46.2333 36.25 46.1167 36.25ZM52.7833 25.2L46.7333 31.25C46.6833 31.3 46.6 31.4833 46.5833 31.5666L46.2667 33.7333L48.45 33.4333C48.5167 33.4166 48.7 33.3333 48.7667 33.2666L54.8167 27.2166C55.1833 26.85 55.4 26.5166 55.4167 26.2666C55.45 25.9166 55.1 25.4833 54.8167 25.2C53.95 24.3333 53.55 24.4333 52.7833 25.2Z" fill="#202020"/>
<path d="M54.8333 30.2167C54.7167 30.2167 54.6 30.2001 54.5 30.1667C52.2667 29.5334 50.4833 27.7501 49.85 25.5167C49.6667 24.8501 50.05 24.1667 50.7167 23.9834C51.3833 23.8001 52.0667 24.1834 52.25 24.8501C52.65 26.2501 53.7667 27.3834 55.1833 27.7834C55.85 27.9667 56.2333 28.6667 56.05 29.3167C55.8667 29.8501 55.3667 30.2167 54.8333 30.2167Z" fill="#202020"/>
<path d="M24.45 52.8334C24.05 52.8334 23.65 52.6334 23.4167 52.2834C23.0333 51.7167 23.1833 50.9333 23.75 50.55L31.9667 45.0334C33.7667 43.8334 36.25 43.9667 37.8833 45.35L38.4333 45.8333C39.2667 46.55 40.6833 46.55 41.5 45.8333L48.4333 39.8833C50.2 38.3667 52.9833 38.3667 54.7667 39.8833L57.4833 42.2167C58 42.6667 58.0667 43.45 57.6167 43.9834C57.1667 44.5 56.3833 44.5667 55.85 44.1167L53.1333 41.7833C52.3 41.0667 50.8833 41.0667 50.0667 41.7833L43.1333 47.7333C41.3667 49.25 38.5833 49.25 36.8 47.7333L36.25 47.25C35.4833 46.6 34.2167 46.5333 33.3667 47.1167L25.1667 52.6333C24.9333 52.7667 24.6833 52.8334 24.45 52.8334Z" fill="#202020"/>
</g>
<defs>
<clipPath id="clip0_0_135">
<rect width="80" height="80" fill="white" transform="translate(0.0285645)"/>
</clipPath>
</defs>
</svg>
