<svg width="81" height="80" viewBox="0 0 81 80" fill="none" xmlns="http://www.w3.org/2000/svg">
<g clip-path="url(#clip0_0_94)">
<rect x="0.5" width="80" height="80" rx="20" fill="#1DEBEB"/>
<path fill-rule="evenodd" clip-rule="evenodd" d="M39.441 22.2153C39.7929 22.0394 40.2071 22.0394 40.559 22.2153L44.259 24.0653C44.7775 24.3246 45.0498 24.9064 44.9166 25.4706C44.7834 26.0348 44.2797 26.4334 43.7 26.4334H36.3C35.7203 26.4334 35.2166 26.0348 35.0834 25.4706C34.9502 24.9064 35.2225 24.3246 35.741 24.0653L39.441 22.2153ZM30.0014 28.3244C30.3101 28.9418 30.0598 29.6927 29.4424 30.0014L27.9784 30.7334L29.4424 31.4653C30.0598 31.7741 30.3101 32.5249 30.0014 33.1424C29.6926 33.7599 28.9418 34.0101 28.3243 33.7014L26.4333 32.7559V35.3667C26.4333 36.0571 25.8737 36.6167 25.1833 36.6167C24.493 36.6167 23.9333 36.0571 23.9333 35.3667V30.7605C23.9331 30.7514 23.9331 30.7424 23.9331 30.7334C23.933 30.6378 23.9439 30.5414 23.9665 30.4461C24.0012 30.2987 24.0619 30.1614 24.1436 30.0392C24.1898 29.97 24.242 29.9065 24.2992 29.8493C24.3565 29.792 24.4199 29.7398 24.4893 29.6936C24.5399 29.6598 24.5931 29.6295 24.6485 29.6032L28.3243 27.7653C28.9418 27.4566 29.6926 27.7069 30.0014 28.3244ZM24.6356 29.6097C24.5123 29.6697 24.3982 29.7502 24.2992 29.8493C24.1867 29.9618 24.0981 30.0936 24.0363 30.2365C24.0453 30.2157 24.055 30.1949 24.0653 30.1744M49.9986 28.3244C50.3074 27.7069 51.0582 27.4566 51.6757 27.7653L55.3515 29.6033C55.3936 29.6232 55.4345 29.6455 55.4739 29.6699C55.5544 29.7196 55.6298 29.7787 55.6981 29.8465C55.7683 29.9163 55.8293 29.9936 55.8803 30.0764C55.95 30.189 56.0024 30.3136 56.0335 30.4463C56.0561 30.5415 56.067 30.6378 56.0669 30.7334C56.0669 30.7424 56.0669 30.7514 56.0667 30.7604V35.3667C56.0667 36.0571 55.507 36.6167 54.8167 36.6167C54.1263 36.6167 53.5667 36.0571 53.5667 35.3667V32.7559L51.6757 33.7014C51.0582 34.0101 50.3074 33.7599 49.9986 33.1424C49.6899 32.5249 49.9402 31.7741 50.5576 31.4653L52.0216 30.7334L50.5576 30.0014C49.9402 29.6927 49.6899 28.9418 49.9986 28.3244ZM35.182 35.741C35.4907 35.1235 36.2415 34.8733 36.859 35.182L40 36.7525L43.141 35.182C43.7585 34.8733 44.5093 35.1235 44.818 35.741C45.1268 36.3585 44.8765 37.1093 44.259 37.4181L41.25 38.9226V42.7834C41.25 43.4737 40.6904 44.0334 40 44.0334C39.3096 44.0334 38.75 43.4737 38.75 42.7834V38.9226L35.741 37.4181C35.1235 37.1093 34.8732 36.3585 35.182 35.741ZM24.8628 43.4252C25.4108 43.2798 25.988 43.5214 26.269 44.0138L29.969 50.4971C30.2419 50.9754 30.1697 51.576 29.7912 51.976C29.4126 52.3759 28.8169 52.481 28.3243 52.2347L24.6243 50.3847C24.2008 50.173 23.9333 49.7402 23.9333 49.2667V44.6334C23.9333 44.0665 24.3149 43.5705 24.8628 43.4252ZM53.5667 44.6334C53.5667 43.943 54.1263 43.3834 54.8167 43.3834C55.507 43.3834 56.0667 43.943 56.0667 44.6334V49.2667C56.0667 49.7402 55.7992 50.173 55.3757 50.3847L51.6757 52.2347C51.0582 52.5435 50.3074 52.2932 49.9986 51.6757C49.6899 51.0582 49.9402 50.3074 50.5576 49.9987L53.5667 48.4942V44.6334ZM40 50.7834C40.6904 50.7834 41.25 51.343 41.25 52.0334V54.6442L43.141 53.6987C43.7585 53.3899 44.5093 53.6402 44.818 54.2577C45.1268 54.8752 44.8765 55.626 44.259 55.9347L40.5815 57.7735C40.557 57.7861 40.5221 57.8028 40.4968 57.8138C40.4281 57.8436 40.3579 57.8668 40.2871 57.8836C40.1919 57.9061 40.0956 57.9171 40 57.917C39.9044 57.9171 39.8081 57.9061 39.7129 57.8836C39.6092 57.8592 39.5104 57.8219 39.4185 57.7735L35.741 55.9347C35.1235 55.626 34.8732 54.8752 35.182 54.2577C35.4907 53.6402 36.2415 53.3899 36.859 53.6987L38.75 54.6442V52.0334C38.75 51.343 39.3096 50.7834 40 50.7834Z" fill="black"/>
</g>
<defs>
<clipPath id="clip0_0_94">
<rect width="80" height="80" fill="white" transform="translate(0.5)"/>
</clipPath>
</defs>
</svg>
