<svg width="81" height="80" viewBox="0 0 81 80" fill="none" xmlns="http://www.w3.org/2000/svg">
<g clip-path="url(#clip0_0_94)">
<g filter="url(#filter0_d_0_94)">
<rect x="0.5" width="80" height="80" rx="20" fill="white"/>
</g>
<g clip-path="url(#clip1_0_94)">
<path d="M57.0187 48.2763C55.8531 51.4354 54.0902 54.1822 51.7784 56.4397C49.1471 59.0092 45.7014 61.0509 41.5372 62.5074C41.4005 62.5551 41.2579 62.5941 41.1147 62.6229C40.9255 62.6603 40.7328 62.6805 40.5419 62.6831H40.5046C40.301 62.6831 40.0966 62.6626 39.8938 62.6229C39.7505 62.5941 39.6099 62.5551 39.4739 62.5085C35.3047 61.0543 31.8548 59.0135 29.2207 56.444C26.908 54.1866 25.1455 51.4413 23.9815 48.2822C21.865 42.5384 21.9854 36.211 22.0823 31.1263L22.084 31.0482C22.1035 30.6283 22.1161 30.1873 22.123 29.7002C22.1584 27.309 24.0596 25.3308 26.4511 25.1975C31.4372 24.9192 35.2944 23.293 38.5901 20.0806L38.6189 20.0542C39.1662 19.5523 39.8558 19.3061 40.5419 19.3163C41.2037 19.325 41.8628 19.5708 42.3904 20.0542L42.4186 20.0806C45.715 23.293 49.5723 24.9192 54.5584 25.1975C56.9498 25.3308 58.851 27.309 58.8864 29.7002C58.8933 30.1906 58.9059 30.6309 58.9254 31.0482L58.9264 31.0812C59.0231 36.1756 59.1428 42.5156 57.0187 48.2763Z" fill="#2BD67B"/>
<path d="M57.0188 48.2769C55.8531 51.436 54.0903 54.1829 51.7785 56.4404C49.1471 59.0099 45.7015 61.0516 41.5372 62.5081C41.4006 62.5557 41.258 62.5948 41.1148 62.6236C40.9255 62.6609 40.7329 62.6812 40.542 62.6838V19.317C41.2038 19.3256 41.8628 19.5715 42.3905 20.0548L42.4187 20.0813C45.7151 23.2937 49.5723 24.9199 54.5585 25.1981C56.9499 25.3315 58.8511 27.3097 58.8865 29.7009C58.8934 30.1912 58.906 30.6316 58.9255 31.0488L58.9265 31.0819C59.0232 36.1762 59.1429 42.5162 57.0188 48.2769Z" fill="#00AA63"/>
<path d="M51.3124 41.0001C51.3124 46.9467 46.4841 51.7872 40.5424 51.8084H40.5044C34.5452 51.8084 29.696 46.9596 29.696 41.0001C29.696 35.0409 34.5452 30.192 40.5044 30.192H40.5424C46.4841 30.2132 51.3124 35.0538 51.3124 41.0001Z" fill="white"/>
<path d="M51.312 41.0001C51.312 46.9467 46.4837 51.7872 40.542 51.8084V30.192C46.4837 30.2132 51.312 35.0538 51.312 41.0001Z" fill="#E1EBF0"/>
<path d="M45.4099 39.4432L40.5422 44.3116L39.4904 45.3634C39.242 45.6118 38.916 45.7359 38.5904 45.7359C38.2646 45.7359 37.939 45.6118 37.6902 45.3634L35.4287 43.1009C34.9318 42.6039 34.9318 41.799 35.4287 41.3016C35.925 40.8047 36.731 40.8047 37.2279 41.3016L38.5904 42.6641L43.6107 37.644C44.1076 37.1467 44.9136 37.1467 45.4099 37.644C45.9069 38.1409 45.9069 38.9469 45.4099 39.4432Z" fill="#B4D2D7"/>
<path d="M45.4097 39.4432L40.542 44.3116V40.712L43.6105 37.644C44.1074 37.1467 44.9134 37.1467 45.4097 37.644C45.9066 38.1409 45.9066 38.9469 45.4097 39.4432Z" fill="#6FA5AA"/>
</g>
</g>
<defs>
<filter id="filter0_d_0_94" x="-34.5" y="-17" width="150" height="150" filterUnits="userSpaceOnUse" color-interpolation-filters="sRGB">
<feFlood flood-opacity="0" result="BackgroundImageFix"/>
<feColorMatrix in="SourceAlpha" type="matrix" values="0 0 0 0 0 0 0 0 0 0 0 0 0 0 0 0 0 0 127 0" result="hardAlpha"/>
<feOffset dy="18"/>
<feGaussianBlur stdDeviation="17.5"/>
<feColorMatrix type="matrix" values="0 0 0 0 0.760784 0 0 0 0 0.760784 0 0 0 0 0.760784 0 0 0 0.160784 0"/>
<feBlend mode="normal" in2="BackgroundImageFix" result="effect1_dropShadow_0_94"/>
<feBlend mode="normal" in="SourceGraphic" in2="effect1_dropShadow_0_94" result="shape"/>
</filter>
<clipPath id="clip0_0_94">
<rect width="80" height="80" fill="white" transform="translate(0.5)"/>
</clipPath>
<clipPath id="clip1_0_94">
<rect width="36.9305" height="43.3678" fill="white" transform="translate(22.039 19.316)"/>
</clipPath>
</defs>
</svg>
