<svg width="80" height="80" viewBox="0 0 80 80" fill="none" xmlns="http://www.w3.org/2000/svg">
<g clip-path="url(#clip0_0_79)">
<g filter="url(#filter0_d_0_79)">
<rect width="80" height="80" rx="20" fill="#1DEBEB"/>
</g>
<path fill-rule="evenodd" clip-rule="evenodd" d="M46.9163 35.0819C47.405 35.5695 47.4058 36.361 46.9181 36.8496L38.8681 44.9163C38.6335 45.1514 38.3149 45.2835 37.9827 45.2833C37.6505 45.2832 37.332 45.1508 37.0976 44.9154L33.081 40.8821C32.5938 40.3929 32.5955 39.6014 33.0846 39.1143C33.5738 38.6272 34.3652 38.6288 34.8524 39.118L37.9843 42.2628L45.1485 35.0837C45.6362 34.595 46.4277 34.5942 46.9163 35.0819Z" fill="#080808"/>
<path fill-rule="evenodd" clip-rule="evenodd" d="M41.3068 25.0355C40.6016 24.4452 39.4066 24.454 38.729 25.0334L36.0983 27.2812C35.7007 27.6246 35.1939 27.885 34.725 28.0592C34.2548 28.2339 33.7026 28.3667 33.1833 28.3667H30.3C29.2237 28.3667 28.3333 29.257 28.3333 30.3333V33.2C28.3333 33.7201 28.2002 34.268 28.0285 34.7318C27.8562 35.1974 27.6025 35.6929 27.277 36.0836L27.2696 36.0924L25.0235 38.7376C25.023 38.7383 25.0224 38.739 25.0218 38.7397C24.4483 39.4244 24.4483 40.609 25.0218 41.2936C25.0224 41.2943 25.023 41.295 25.0235 41.2957L27.277 43.9497C27.6026 44.3404 27.8562 44.836 28.0285 45.3015C28.2002 45.7653 28.3333 46.3133 28.3333 46.8333V49.6833C28.3333 50.7596 29.2237 51.65 30.3 51.65H33.1833C33.7092 51.65 34.2614 51.7819 34.7333 51.9582C35.2044 52.1342 35.7052 52.3955 36.0999 52.7369C36.1006 52.7375 36.1013 52.7381 36.102 52.7387L38.7266 54.9979C39.4312 55.5876 40.6247 55.5793 41.3026 55.0014C41.3032 55.0009 41.3037 55.0004 41.3043 55L43.9314 52.7387C43.9321 52.7381 43.9329 52.7374 43.9337 52.7367C44.3314 52.3927 44.8389 52.1319 45.3084 51.9574C45.7786 51.7827 46.3308 51.65 46.85 51.65H49.6833C50.7597 51.65 51.65 50.7596 51.65 49.6833V46.85C51.65 46.3241 51.7819 45.772 51.9582 45.3C52.1342 44.829 52.3954 44.3282 52.7368 43.9336C52.7374 43.9329 52.7381 43.9321 52.7387 43.9313L54.9979 41.3067C55.5876 40.6021 55.5793 39.4086 55.0015 38.7308C55.001 38.7302 55.0005 38.7296 55 38.729L52.7387 36.102C52.7381 36.1013 52.7375 36.1006 52.7369 36.0999C52.3928 35.7021 52.1319 35.1945 51.9575 34.725C51.7827 34.2547 51.65 33.7026 51.65 33.1833V30.35C51.65 29.2737 50.7597 28.3833 49.6833 28.3833H46.85C46.3241 28.3833 45.772 28.2514 45.3 28.0751C44.8289 27.8991 44.328 27.6378 43.9334 27.2963C43.9327 27.2958 43.932 27.2952 43.9314 27.2946L41.3068 25.0355ZM37.1047 23.133C38.7258 21.7472 41.2937 21.7549 42.9223 23.1275L42.9322 23.1359L45.5687 25.4054C45.6737 25.4964 45.8886 25.6262 46.175 25.7332C46.4614 25.8402 46.7092 25.8833 46.85 25.8833H49.6833C52.1404 25.8833 54.15 27.893 54.15 30.35V33.1833C54.15 33.3141 54.1923 33.5619 54.3009 33.8542C54.4094 34.1463 54.5397 34.3628 54.628 34.4647L54.6307 34.4679L56.9001 37.1043C58.2862 38.7254 58.2786 41.2935 56.9058 42.9223L56.8974 42.9322L54.6307 45.5655L54.628 45.5687C54.5369 45.6737 54.4071 45.8885 54.3001 46.175C54.1931 46.4614 54.15 46.7092 54.15 46.85V49.6833C54.15 52.1404 52.1404 54.15 49.6833 54.15H46.85C46.7193 54.15 46.4714 54.1923 46.1792 54.3009C45.8871 54.4094 45.6706 54.5396 45.5687 54.6279L45.5655 54.6307L42.9321 56.8974L42.929 56.9C41.308 58.2862 38.7398 58.2785 37.1111 56.9058L37.1012 56.8974L34.4679 54.6307L34.4647 54.6279C34.3597 54.5369 34.1448 54.4071 33.8584 54.3001C33.572 54.1931 33.3241 54.15 33.1833 54.15H30.3C27.843 54.15 25.8333 52.1403 25.8333 49.6833V46.8333C25.8333 46.7034 25.7915 46.4597 25.684 46.1693C25.5782 45.8836 25.4502 45.6641 25.3592 45.5536L23.1098 42.9043C21.7523 41.2893 21.7523 38.744 23.1098 37.129L23.1138 37.1243L25.3592 34.4797C25.4501 34.3693 25.5782 34.1497 25.684 33.864C25.7915 33.5736 25.8333 33.3299 25.8333 33.2V30.3333C25.8333 27.8763 27.843 25.8667 30.3 25.8667H33.1833C33.3141 25.8667 33.5619 25.8244 33.8542 25.7158C34.1463 25.6072 34.3628 25.477 34.4647 25.3887L34.4713 25.383L37.1047 23.133C37.1048 23.1329 37.1046 23.1331 37.1047 23.133Z" fill="#080808"/>
</g>
<defs>
<filter id="filter0_d_0_79" x="-35" y="-17" width="150" height="150" filterUnits="userSpaceOnUse" color-interpolation-filters="sRGB">
<feFlood flood-opacity="0" result="BackgroundImageFix"/>
<feColorMatrix in="SourceAlpha" type="matrix" values="0 0 0 0 0 0 0 0 0 0 0 0 0 0 0 0 0 0 127 0" result="hardAlpha"/>
<feOffset dy="18"/>
<feGaussianBlur stdDeviation="17.5"/>
<feColorMatrix type="matrix" values="0 0 0 0 0.760784 0 0 0 0 0.760784 0 0 0 0 0.760784 0 0 0 0.160784 0"/>
<feBlend mode="normal" in2="BackgroundImageFix" result="effect1_dropShadow_0_79"/>
<feBlend mode="normal" in="SourceGraphic" in2="effect1_dropShadow_0_79" result="shape"/>
</filter>
<clipPath id="clip0_0_79">
<rect width="80" height="80" fill="white"/>
</clipPath>
</defs>
</svg>
